<?xml version="1.0" encoding="UTF-8" standalone="no"?>
<!DOCTYPE svg PUBLIC "-//W3C//DTD SVG 1.1//EN"
 "http://www.w3.org/Graphics/SVG/1.1/DTD/svg11.dtd">
<!-- Generated by graphviz version 7.1.0 (0)
 -->
<!-- Pages: 1 -->
<svg width="492pt" height="135pt"
 viewBox="0.00 0.00 492.00 135.00" xmlns="http://www.w3.org/2000/svg" xmlns:xlink="http://www.w3.org/1999/xlink">
<g id="graph0" class="graph" transform="scale(1 1) rotate(0) translate(4 131)">
<polygon fill="slategrey" stroke="none" points="-4,4 -4,-131 488,-131 488,4 -4,4"/>
<g id="clust1" class="cluster">
<title>cluster_0</title>
<polygon fill="slateblue" stroke="white" stroke-dasharray="5,2" points="8,-8 8,-119 476,-119 476,-8 8,-8"/>
<text text-anchor="middle" x="242" y="-103.8" font-family="Times,serif" font-size="14.00" fill="white">STACK</text>
</g>
<!-- nodeA -->
<g id="node1" class="node">
<title>nodeA</title>
<polygon fill="steelblue" stroke="none" points="24,-20.5 24,-83.5 460,-83.5 460,-20.5 24,-20.5"/>
<polygon fill="slateblue" stroke="none" points="24,-62 24,-83 460,-83 460,-62 24,-62"/>
<polygon fill="none" stroke="slateblue" points="24,-62 24,-83 460,-83 460,-62 24,-62"/>
<text text-anchor="start" x="210" y="-69.8" font-family="Times,serif" font-size="14.00" fill="white"> </text>
<text text-anchor="start" x="215" y="-69.8" font-family="Times,serif" font-weight="bold" font-size="14.00" fill="white"> &#160;main </text>
<text text-anchor="start" x="269" y="-69.8" font-family="Times,serif" font-size="14.00" fill="white"> </text>
<polygon fill="none" stroke="white" points="24,-41 24,-62 69,-62 69,-41 24,-41"/>
<text text-anchor="start" x="29" y="-48.8" font-family="Times,serif" font-size="14.00" fill="white"> </text>
<text text-anchor="start" x="34" y="-48.8" font-family="Times,serif" font-weight="bold" font-size="14.00" fill="white"> &#160;n </text>
<text text-anchor="start" x="59" y="-48.8" font-family="Times,serif" font-size="14.00" fill="white"> </text>
<polygon fill="none" stroke="white" points="69,-41 69,-62 98,-62 98,-41 69,-41"/>
<text text-anchor="start" x="72" y="-47.8" font-family="Times,serif" font-size="14.00" fill="white"> &#160;0 </text>
<polygon fill="none" stroke="white" points="98,-41 98,-62 127,-62 127,-41 98,-41"/>
<text text-anchor="start" x="101" y="-47.8" font-family="Times,serif" font-size="14.00" fill="white"> &#160;0 </text>
<polygon fill="none" stroke="white" points="127,-41 127,-62 156,-62 156,-41 127,-41"/>
<text text-anchor="start" x="130" y="-47.8" font-family="Times,serif" font-size="14.00" fill="white"> &#160;0 </text>
<polygon fill="none" stroke="white" points="156,-41 156,-62 185,-62 185,-41 156,-41"/>
<text text-anchor="start" x="159" y="-47.8" font-family="Times,serif" font-size="14.00" fill="white"> &#160;0 </text>
<polygon fill="none" stroke="white" points="185,-41 185,-62 214,-62 214,-41 185,-41"/>
<text text-anchor="start" x="188" y="-47.8" font-family="Times,serif" font-size="14.00" fill="white"> &#160;0 </text>
<polygon fill="none" stroke="white" points="214,-41 214,-62 243,-62 243,-41 214,-41"/>
<text text-anchor="start" x="217" y="-47.8" font-family="Times,serif" font-size="14.00" fill="white"> &#160;0 </text>
<polygon fill="none" stroke="white" points="243,-41 243,-62 272,-62 272,-41 243,-41"/>
<text text-anchor="start" x="246" y="-47.8" font-family="Times,serif" font-size="14.00" fill="white"> &#160;0 </text>
<polygon fill="none" stroke="white" points="272,-41 272,-62 301,-62 301,-41 272,-41"/>
<text text-anchor="start" x="275" y="-47.8" font-family="Times,serif" font-size="14.00" fill="white"> &#160;0 </text>
<polygon fill="none" stroke="white" points="301,-41 301,-62 330,-62 330,-41 301,-41"/>
<text text-anchor="start" x="304" y="-47.8" font-family="Times,serif" font-size="14.00" fill="white"> &#160;0 </text>
<polygon fill="none" stroke="white" points="330,-41 330,-62 359,-62 359,-41 330,-41"/>
<text text-anchor="start" x="333" y="-47.8" font-family="Times,serif" font-size="14.00" fill="white"> &#160;0 </text>
<polygon fill="none" stroke="white" points="359,-41 359,-62 388,-62 388,-41 359,-41"/>
<text text-anchor="start" x="362" y="-47.8" font-family="Times,serif" font-size="14.00" fill="white"> &#160;0 </text>
<polygon fill="none" stroke="white" points="388,-41 388,-62 431,-62 431,-41 388,-41"/>
<text text-anchor="start" x="391" y="-47.8" font-family="Times,serif" font-size="14.00" fill="white"> &#160;. . . </text>
<polygon fill="none" stroke="white" points="431,-41 431,-62 460,-62 460,-41 431,-41"/>
<text text-anchor="start" x="434" y="-47.8" font-family="Times,serif" font-size="14.00" fill="white"> &#160;0 </text>
<polygon fill="none" stroke="white" points="24,-20 24,-41 69,-41 69,-20 24,-20"/>
<text text-anchor="start" x="27" y="-27.8" font-family="Times,serif" font-size="14.00" fill="white"> </text>
<text text-anchor="start" x="32" y="-27.8" font-family="Times,serif" font-weight="bold" font-size="14.00" fill="white"> &#160;m </text>
<text text-anchor="start" x="61" y="-27.8" font-family="Times,serif" font-size="14.00" fill="white"> </text>
<polygon fill="none" stroke="white" points="69,-20 69,-41 98,-41 98,-20 69,-20"/>
<text text-anchor="start" x="72" y="-26.8" font-family="Times,serif" font-size="14.00" fill="white"> &#160;0 </text>
<polygon fill="none" stroke="white" points="98,-20 98,-41 127,-41 127,-20 98,-20"/>
<text text-anchor="start" x="101" y="-26.8" font-family="Times,serif" font-size="14.00" fill="white"> &#160;0 </text>
<polygon fill="none" stroke="white" points="127,-20 127,-41 156,-41 156,-20 127,-20"/>
<text text-anchor="start" x="130" y="-26.8" font-family="Times,serif" font-size="14.00" fill="white"> &#160;0 </text>
<polygon fill="none" stroke="white" points="156,-20 156,-41 185,-41 185,-20 156,-20"/>
<text text-anchor="start" x="159" y="-26.8" font-family="Times,serif" font-size="14.00" fill="white"> &#160;0 </text>
<polygon fill="none" stroke="white" points="185,-20 185,-41 214,-41 214,-20 185,-20"/>
<text text-anchor="start" x="188" y="-26.8" font-family="Times,serif" font-size="14.00" fill="white"> &#160;0 </text>
<polygon fill="none" stroke="white" points="214,-20 214,-41 243,-41 243,-20 214,-20"/>
<text text-anchor="start" x="217" y="-26.8" font-family="Times,serif" font-size="14.00" fill="white"> &#160;0 </text>
<polygon fill="none" stroke="white" points="243,-20 243,-41 272,-41 272,-20 243,-20"/>
<text text-anchor="start" x="246" y="-26.8" font-family="Times,serif" font-size="14.00" fill="white"> &#160;0 </text>
<polygon fill="none" stroke="white" points="272,-20 272,-41 301,-41 301,-20 272,-20"/>
<text text-anchor="start" x="275" y="-26.8" font-family="Times,serif" font-size="14.00" fill="white"> &#160;0 </text>
<polygon fill="none" stroke="white" points="301,-20 301,-41 330,-41 330,-20 301,-20"/>
<text text-anchor="start" x="304" y="-26.8" font-family="Times,serif" font-size="14.00" fill="white"> &#160;0 </text>
<polygon fill="none" stroke="white" points="330,-20 330,-41 359,-41 359,-20 330,-20"/>
<text text-anchor="start" x="333" y="-26.8" font-family="Times,serif" font-size="14.00" fill="white"> &#160;0 </text>
<polygon fill="none" stroke="white" points="359,-20 359,-41 388,-41 388,-20 359,-20"/>
<text text-anchor="start" x="362" y="-26.8" font-family="Times,serif" font-size="14.00" fill="white"> &#160;0 </text>
<polygon fill="none" stroke="white" points="388,-20 388,-41 431,-41 431,-20 388,-20"/>
<text text-anchor="start" x="391" y="-26.8" font-family="Times,serif" font-size="14.00" fill="white"> &#160;. . . </text>
<polygon fill="none" stroke="white" points="431,-20 431,-41 460,-41 460,-20 431,-20"/>
<text text-anchor="start" x="434" y="-26.8" font-family="Times,serif" font-size="14.00" fill="white"> &#160;0 </text>
</g>
</g>
</svg>
