<?xml version="1.0" encoding="UTF-8" standalone="no"?>
<!DOCTYPE svg PUBLIC "-//W3C//DTD SVG 1.1//EN"
 "http://www.w3.org/Graphics/SVG/1.1/DTD/svg11.dtd">
<!-- Generated by graphviz version 7.1.0 (0)
 -->
<!-- Pages: 1 -->
<svg width="349pt" height="116pt"
 viewBox="0.00 0.00 349.00 116.00" xmlns="http://www.w3.org/2000/svg" xmlns:xlink="http://www.w3.org/1999/xlink">
<g id="graph0" class="graph" transform="scale(1 1) rotate(0) translate(4 112)">
<polygon fill="slategrey" stroke="none" points="-4,4 -4,-112 345,-112 345,4 -4,4"/>
<g id="clust1" class="cluster">
<title>cluster_0</title>
<polygon fill="slateblue" stroke="white" stroke-dasharray="5,2" points="136,-8 136,-83 333,-83 333,-8 136,-8"/>
<text text-anchor="middle" x="234.5" y="-67.8" font-family="Times,serif" font-size="14.00" fill="white">HEAP</text>
</g>
<g id="clust2" class="cluster">
<title>cluster_1</title>
<polygon fill="slateblue" stroke="white" stroke-dasharray="5,2" points="8,-11 8,-100 116,-100 116,-11 8,-11"/>
<text text-anchor="middle" x="62" y="-84.8" font-family="Times,serif" font-size="14.00" fill="white">STACK</text>
</g>
<!-- nodeA -->
<g id="node1" class="node">
<title>nodeA</title>
<polygon fill="steelblue" stroke="none" points="152,-23.5 152,-44.5 317,-44.5 317,-23.5 152,-23.5"/>
<polygon fill="none" stroke="white" points="152.5,-23 152.5,-44 182.5,-44 182.5,-23 152.5,-23"/>
<text text-anchor="start" x="155.5" y="-29.8" font-family="Times,serif" font-size="14.00" fill="white"> &#160;F </text>
<polygon fill="none" stroke="white" points="182.5,-23 182.5,-44 210.5,-44 210.5,-23 182.5,-23"/>
<text text-anchor="start" x="185.5" y="-29.8" font-family="Times,serif" font-size="14.00" fill="white"> &#160;e </text>
<polygon fill="none" stroke="white" points="210.5,-23 210.5,-44 237.5,-44 237.5,-23 210.5,-23"/>
<text text-anchor="start" x="213.5" y="-29.8" font-family="Times,serif" font-size="14.00" fill="white"> &#160;r </text>
<polygon fill="none" stroke="white" points="237.5,-23 237.5,-44 264.5,-44 264.5,-23 237.5,-23"/>
<text text-anchor="start" x="240.5" y="-29.8" font-family="Times,serif" font-size="14.00" fill="white"> &#160;r </text>
<polygon fill="none" stroke="white" points="264.5,-23 264.5,-44 289.5,-44 289.5,-23 264.5,-23"/>
<text text-anchor="start" x="267.5" y="-29.8" font-family="Times,serif" font-size="14.00" fill="white"> &#160;i </text>
<polygon fill="none" stroke="white" points="289.5,-23 289.5,-44 317.5,-44 317.5,-23 289.5,-23"/>
<text text-anchor="start" x="292.5" y="-29.8" font-family="Times,serif" font-size="14.00" fill="white"> &#160;s </text>
</g>
<!-- nodeB -->
<g id="node2" class="node">
<title>nodeB</title>
<polygon fill="none" stroke="slateblue" points="24,-44 24,-65 100,-65 100,-44 24,-44"/>
<text text-anchor="start" x="30" y="-51.8" font-family="Times,serif" font-size="14.00" fill="white"> </text>
<text text-anchor="start" x="35" y="-51.8" font-family="Times,serif" font-weight="bold" font-size="14.00" fill="white"> &#160;main </text>
<text text-anchor="start" x="89" y="-51.8" font-family="Times,serif" font-size="14.00" fill="white"> </text>
<polygon fill="steelblue" stroke="none" points="24,-23 24,-44 73,-44 73,-23 24,-23"/>
<polygon fill="none" stroke="white" points="24,-23 24,-44 73,-44 73,-23 24,-23"/>
<text text-anchor="start" x="27" y="-29.8" font-family="Times,serif" font-size="14.00" fill="white"> &#160;first </text>
<polygon fill="steelblue" stroke="none" points="73,-23 73,-44 100,-44 100,-23 73,-23"/>
<polygon fill="none" stroke="white" points="73,-23 73,-44 100,-44 100,-23 73,-23"/>
<text text-anchor="start" x="76" y="-29.8" font-family="Times,serif" font-size="14.00" fill="white"> ⏺ </text>
</g>
<!-- nodeB&#45;&gt;nodeA -->
<g id="edge1" class="edge">
<title>nodeB:f1&#45;&gt;nodeA:f0</title>
<path fill="none" stroke="white" d="M101,-33C119.76,-33 126.76,-33 141.66,-33"/>
<polygon fill="white" stroke="white" points="151.5,-33 141.5,-37.5 146.5,-33 141.5,-33 141.5,-33 141.5,-33 146.5,-33 141.5,-28.5 151.5,-33 151.5,-33"/>
</g>
</g>
</svg>
