<?xml version="1.0" encoding="UTF-8" standalone="no"?>
<!DOCTYPE svg PUBLIC "-//W3C//DTD SVG 1.1//EN"
 "http://www.w3.org/Graphics/SVG/1.1/DTD/svg11.dtd">
<!-- Generated by graphviz version 7.1.0 (0)
 -->
<!-- Pages: 1 -->
<svg width="216pt" height="135pt"
 viewBox="0.00 0.00 216.00 135.00" xmlns="http://www.w3.org/2000/svg" xmlns:xlink="http://www.w3.org/1999/xlink">
<g id="graph0" class="graph" transform="scale(1 1) rotate(0) translate(4 131)">
<polygon fill="slategrey" stroke="none" points="-4,4 -4,-131 212,-131 212,4 -4,4"/>
<g id="clust1" class="cluster">
<title>cluster_0</title>
<polygon fill="slateblue" stroke="white" stroke-dasharray="5,2" points="130,-16 130,-91 200,-91 200,-16 130,-16"/>
<text text-anchor="middle" x="165" y="-75.8" font-family="Times,serif" font-size="14.00" fill="white">HEAP</text>
</g>
<g id="clust2" class="cluster">
<title>cluster_1</title>
<polygon fill="slateblue" stroke="white" stroke-dasharray="5,2" points="8,-8 8,-119 110,-119 110,-8 8,-8"/>
<text text-anchor="middle" x="59" y="-103.8" font-family="Times,serif" font-size="14.00" fill="white">STACK</text>
</g>
<!-- nodeA -->
<g id="node1" class="node">
<title>nodeA</title>
<polygon fill="steelblue" stroke="none" points="152.5,-31.5 152.5,-52.5 177.5,-52.5 177.5,-31.5 152.5,-31.5"/>
<polygon fill="none" stroke="white" points="153,-31 153,-52 178,-52 178,-31 153,-31"/>
<text text-anchor="start" x="156" y="-37.8" font-family="Times,serif" font-size="14.00" fill="white"> 5 </text>
</g>
<!-- nodeB -->
<g id="node2" class="node">
<title>nodeB</title>
<polygon fill="none" stroke="slateblue" points="24,-62 24,-83 94,-83 94,-62 24,-62"/>
<text text-anchor="start" x="27" y="-69.8" font-family="Times,serif" font-size="14.00" fill="white"> </text>
<text text-anchor="start" x="32" y="-69.8" font-family="Times,serif" font-weight="bold" font-size="14.00" fill="white"> &#160;main </text>
<text text-anchor="start" x="86" y="-69.8" font-family="Times,serif" font-size="14.00" fill="white"> </text>
<polygon fill="grey" stroke="none" points="24,-41 24,-62 66,-62 66,-41 24,-41"/>
<polygon fill="none" stroke="white" points="24,-41 24,-62 66,-62 66,-41 24,-41"/>
<text text-anchor="start" x="27.5" y="-48.8" font-family="Times,serif" font-size="14.00" fill="white"> </text>
<text text-anchor="start" x="32.5" y="-48.8" font-family="Times,serif" font-weight="bold" font-size="14.00" fill="white"> &#160;n </text>
<text text-anchor="start" x="57.5" y="-48.8" font-family="Times,serif" font-size="14.00" fill="white"> </text>
<polygon fill="grey" stroke="none" points="66,-41 66,-62 94,-62 94,-41 66,-41"/>
<polygon fill="none" stroke="white" points="66,-41 66,-62 94,-62 94,-41 66,-41"/>
<text text-anchor="start" x="69.5" y="-47.8" font-family="Times,serif" font-size="14.00" fill="white"> ⏺ </text>
<polygon fill="steelblue" stroke="none" points="24,-20 24,-41 66,-41 66,-20 24,-20"/>
<polygon fill="none" stroke="white" points="24,-20 24,-41 66,-41 66,-20 24,-20"/>
<text text-anchor="start" x="27.5" y="-27.8" font-family="Times,serif" font-size="14.00" fill="white"> </text>
<text text-anchor="start" x="32.5" y="-27.8" font-family="Times,serif" font-weight="bold" font-size="14.00" fill="white"> m </text>
<text text-anchor="start" x="57.5" y="-27.8" font-family="Times,serif" font-size="14.00" fill="white"> </text>
<polygon fill="steelblue" stroke="none" points="66,-20 66,-41 94,-41 94,-20 66,-20"/>
<polygon fill="none" stroke="white" points="66,-20 66,-41 94,-41 94,-20 66,-20"/>
<text text-anchor="start" x="69.5" y="-26.8" font-family="Times,serif" font-size="14.00" fill="white"> ⏺ </text>
</g>
<!-- nodeB&#45;&gt;nodeA -->
<g id="edge1" class="edge">
<title>nodeB:f1&#45;&gt;nodeA:f0</title>
<path fill="none" stroke="lightgrey" stroke-dasharray="5,2" d="M95,-51C111.43,-51 129.82,-48.27 143.63,-45.66"/>
<polygon fill="lightgrey" stroke="lightgrey" points="153.18,-43.73 144.27,-50.12 148.28,-44.72 143.38,-45.71 143.38,-45.71 143.38,-45.71 148.28,-44.72 142.49,-41.29 153.18,-43.73 153.18,-43.73"/>
</g>
<!-- nodeB&#45;&gt;nodeA -->
<g id="edge2" class="edge">
<title>nodeB:f2&#45;&gt;nodeA:f0</title>
<path fill="none" stroke="white" d="M95,-30C111.47,-30 129.86,-33.01 143.65,-35.88"/>
<polygon fill="white" stroke="white" points="153.2,-37.99 142.46,-40.22 148.32,-36.91 143.44,-35.83 143.44,-35.83 143.44,-35.83 148.32,-36.91 144.41,-31.44 153.2,-37.99 153.2,-37.99"/>
</g>
</g>
</svg>
