<?xml version="1.0" encoding="UTF-8" standalone="no"?>
<!DOCTYPE svg PUBLIC "-//W3C//DTD SVG 1.1//EN"
 "http://www.w3.org/Graphics/SVG/1.1/DTD/svg11.dtd">
<!-- Generated by graphviz version 7.1.0 (0)
 -->
<!-- Pages: 1 -->
<svg width="229pt" height="203pt"
 viewBox="0.00 0.00 229.00 203.00" xmlns="http://www.w3.org/2000/svg" xmlns:xlink="http://www.w3.org/1999/xlink">
<g id="graph0" class="graph" transform="scale(1 1) rotate(0) translate(4 199)">
<polygon fill="slategrey" stroke="none" points="-4,4 -4,-199 225,-199 225,4 -4,4"/>
<g id="clust1" class="cluster">
<title>cluster_0</title>
<polygon fill="slateblue" stroke="white" stroke-dasharray="5,2" points="143,-54 143,-143 213,-143 213,-54 143,-54"/>
<text text-anchor="middle" x="178" y="-127.8" font-family="Times,serif" font-size="14.00" fill="white">HEAP</text>
</g>
<g id="clust2" class="cluster">
<title>cluster_1</title>
<polygon fill="slateblue" stroke="white" stroke-dasharray="5,2" points="8,-8 8,-187 123,-187 123,-8 8,-8"/>
<text text-anchor="middle" x="65.5" y="-171.8" font-family="Times,serif" font-size="14.00" fill="white">STACK</text>
</g>
<!-- nodeA -->
<g id="node1" class="node">
<title>nodeA</title>
<polygon fill="steelblue" stroke="none" points="159,-66 159,-108 197,-108 197,-66 159,-66"/>
<polygon fill="none" stroke="white" points="159,-87 159,-108 197,-108 197,-87 159,-87"/>
<text text-anchor="start" x="166.5" y="-93.8" font-family="Times,serif" font-size="14.00" fill="white"> &#160;5 </text>
<polygon fill="none" stroke="white" points="159,-66 159,-87 197,-87 197,-66 159,-66"/>
<text text-anchor="start" x="162" y="-72.8" font-family="Times,serif" font-size="14.00" fill="white"> &#160;10 </text>
</g>
<!-- nodeB -->
<g id="node2" class="node">
<title>nodeB</title>
<polygon fill="none" stroke="slateblue" points="30.5,-130 30.5,-151 100.5,-151 100.5,-130 30.5,-130"/>
<text text-anchor="start" x="33.5" y="-137.8" font-family="Times,serif" font-size="14.00" fill="white"> </text>
<text text-anchor="start" x="38.5" y="-137.8" font-family="Times,serif" font-weight="bold" font-size="14.00" fill="white"> &#160;main </text>
<text text-anchor="start" x="92.5" y="-137.8" font-family="Times,serif" font-size="14.00" fill="white"> </text>
<polygon fill="grey" stroke="none" points="30.5,-109 30.5,-130 72.5,-130 72.5,-109 30.5,-109"/>
<polygon fill="none" stroke="white" points="30.5,-109 30.5,-130 72.5,-130 72.5,-109 30.5,-109"/>
<text text-anchor="start" x="34" y="-116.8" font-family="Times,serif" font-size="14.00" fill="white"> </text>
<text text-anchor="start" x="39" y="-116.8" font-family="Times,serif" font-weight="bold" font-size="14.00" fill="white"> &#160;n </text>
<text text-anchor="start" x="64" y="-116.8" font-family="Times,serif" font-size="14.00" fill="white"> </text>
<polygon fill="grey" stroke="none" points="72.5,-109 72.5,-130 100.5,-130 100.5,-109 72.5,-109"/>
<polygon fill="none" stroke="white" points="72.5,-109 72.5,-130 100.5,-130 100.5,-109 72.5,-109"/>
<text text-anchor="start" x="76" y="-115.8" font-family="Times,serif" font-size="14.00" fill="white"> ⏺ </text>
<polygon fill="steelblue" stroke="none" points="30.5,-88 30.5,-109 72.5,-109 72.5,-88 30.5,-88"/>
<polygon fill="none" stroke="white" points="30.5,-88 30.5,-109 72.5,-109 72.5,-88 30.5,-88"/>
<text text-anchor="start" x="34" y="-95.8" font-family="Times,serif" font-size="14.00" fill="white"> </text>
<text text-anchor="start" x="39" y="-95.8" font-family="Times,serif" font-weight="bold" font-size="14.00" fill="white"> m </text>
<text text-anchor="start" x="64" y="-95.8" font-family="Times,serif" font-size="14.00" fill="white"> </text>
<polygon fill="steelblue" stroke="none" points="72.5,-88 72.5,-109 100.5,-109 100.5,-88 72.5,-88"/>
<polygon fill="none" stroke="white" points="72.5,-88 72.5,-109 100.5,-109 100.5,-88 72.5,-88"/>
<text text-anchor="start" x="76" y="-94.8" font-family="Times,serif" font-size="14.00" fill="white"> ⏺ </text>
</g>
<!-- nodeB&#45;&gt;nodeA -->
<g id="edge1" class="edge">
<title>nodeB:f1&#45;&gt;nodeA:f0</title>
<path fill="none" stroke="lightgrey" stroke-dasharray="5,2" d="M101.5,-119C128.29,-119 131.21,-98 158,-98"/>
</g>
<!-- nodeB&#45;&gt;nodeA -->
<g id="edge2" class="edge">
<title>nodeB:f2&#45;&gt;nodeA:f0</title>
<path fill="none" stroke="white" d="M101.5,-98C123.08,-98 130.75,-98 148.42,-98"/>
<polygon fill="white" stroke="white" points="158,-98 148,-102.5 153,-98 148,-98 148,-98 148,-98 153,-98 148,-93.5 158,-98 158,-98"/>
</g>
<!-- nodeC -->
<g id="node3" class="node">
<title>nodeC</title>
<polygon fill="none" stroke="slateblue" points="24.5,-41 24.5,-62 107.5,-62 107.5,-41 24.5,-41"/>
<text text-anchor="start" x="27.5" y="-48.8" font-family="Times,serif" font-size="14.00" fill="white"> </text>
<text text-anchor="start" x="32.5" y="-48.8" font-family="Times,serif" font-weight="bold" font-size="14.00" fill="white"> &#160;funcao </text>
<text text-anchor="start" x="99.5" y="-48.8" font-family="Times,serif" font-size="14.00" fill="white"> </text>
<polygon fill="steelblue" stroke="none" points="24.5,-20 24.5,-41 71.5,-41 71.5,-20 24.5,-20"/>
<polygon fill="none" stroke="white" points="24.5,-20 24.5,-41 71.5,-41 71.5,-20 24.5,-20"/>
<text text-anchor="start" x="34" y="-27.8" font-family="Times,serif" font-size="14.00" fill="white"> </text>
<text text-anchor="start" x="39" y="-27.8" font-family="Times,serif" font-weight="bold" font-size="14.00" fill="white"> x </text>
<text text-anchor="start" x="57" y="-27.8" font-family="Times,serif" font-size="14.00" fill="white"> </text>
<polygon fill="steelblue" stroke="none" points="71.5,-20 71.5,-41 107.5,-41 107.5,-20 71.5,-20"/>
<polygon fill="none" stroke="white" points="71.5,-20 71.5,-41 107.5,-41 107.5,-20 71.5,-20"/>
<text text-anchor="start" x="81" y="-26.8" font-family="Times,serif" font-size="14.00" fill="white"> ⏺</text>
</g>
<!-- nodeC&#45;&gt;nodeA -->
<g id="edge3" class="edge">
<title>nodeC:f3&#45;&gt;nodeA:f4</title>
<path fill="none" stroke="white" d="M108.5,-30C134.78,-30 129.97,-65.22 148.48,-74.02"/>
<polygon fill="white" stroke="white" points="158,-76 147.29,-78.37 153.1,-74.98 148.21,-73.97 148.21,-73.97 148.21,-73.97 153.1,-74.98 149.12,-69.56 158,-76 158,-76"/>
</g>
</g>
</svg>
