<?xml version="1.0" encoding="UTF-8" standalone="no"?>
<!DOCTYPE svg PUBLIC "-//W3C//DTD SVG 1.1//EN"
 "http://www.w3.org/Graphics/SVG/1.1/DTD/svg11.dtd">
<!-- Generated by graphviz version 7.1.0 (0)
 -->
<!-- Pages: 1 -->
<svg width="126pt" height="113pt"
 viewBox="0.00 0.00 126.00 113.00" xmlns="http://www.w3.org/2000/svg" xmlns:xlink="http://www.w3.org/1999/xlink">
<g id="graph0" class="graph" transform="scale(1 1) rotate(0) translate(4 109)">
<polygon fill="slategrey" stroke="none" points="-4,4 -4,-109 122,-109 122,4 -4,4"/>
<g id="clust1" class="cluster">
<title>cluster_0</title>
<polygon fill="slateblue" stroke="white" stroke-dasharray="5,2" points="8,-8 8,-97 110,-97 110,-8 8,-8"/>
<text text-anchor="middle" x="59" y="-81.8" font-family="Times,serif" font-size="14.00" fill="white">STACK</text>
</g>
<!-- nodeA -->
<g id="node1" class="node">
<title>nodeA</title>
<polygon fill="none" stroke="slateblue" points="24,-41 24,-62 94,-62 94,-41 24,-41"/>
<text text-anchor="start" x="27" y="-48.8" font-family="Times,serif" font-size="14.00" fill="white"> </text>
<text text-anchor="start" x="32" y="-48.8" font-family="Times,serif" font-weight="bold" font-size="14.00" fill="white"> &#160;main </text>
<text text-anchor="start" x="86" y="-48.8" font-family="Times,serif" font-size="14.00" fill="white"> </text>
<polygon fill="steelblue" stroke="none" points="24,-20 24,-41 59,-41 59,-20 24,-20"/>
<polygon fill="none" stroke="white" points="24,-20 24,-41 59,-41 59,-20 24,-20"/>
<text text-anchor="start" x="32" y="-26.8" font-family="Times,serif" font-size="14.00" fill="white"> n </text>
<polygon fill="steelblue" stroke="none" points="59,-20 59,-41 94,-41 94,-20 59,-20"/>
<polygon fill="none" stroke="white" points="59,-20 59,-41 94,-41 94,-20 59,-20"/>
<text text-anchor="start" x="67" y="-26.8" font-family="Times,serif" font-size="14.00" fill="white"> 5 </text>
</g>
</g>
</svg>
