<?xml version="1.0" encoding="UTF-8" standalone="no"?>
<!DOCTYPE svg PUBLIC "-//W3C//DTD SVG 1.1//EN"
 "http://www.w3.org/Graphics/SVG/1.1/DTD/svg11.dtd">
<!-- Generated by graphviz version 7.1.0 (0)
 -->
<!-- Pages: 1 -->
<svg width="122pt" height="134pt"
 viewBox="0.00 0.00 122.00 134.00" xmlns="http://www.w3.org/2000/svg" xmlns:xlink="http://www.w3.org/1999/xlink">
<g id="graph0" class="graph" transform="scale(1 1) rotate(0) translate(4 130)">
<polygon fill="slategrey" stroke="none" points="-4,4 -4,-130 118,-130 118,4 -4,4"/>
<g id="clust1" class="cluster">
<title>cluster_0</title>
<polygon fill="slateblue" stroke="white" stroke-dasharray="5,2" points="8,-8 8,-118 106,-118 106,-8 8,-8"/>
<text text-anchor="middle" x="57" y="-102.8" font-family="Times,serif" font-size="14.00" fill="white">STACK</text>
</g>
<!-- nodeA -->
<g id="node1" class="node">
<title>nodeA</title>
<polygon fill="none" stroke="slateblue" points="25,-61.5 25,-82.5 90,-82.5 90,-61.5 25,-61.5"/>
<text text-anchor="start" x="28" y="-69.3" font-family="Times,serif" font-size="14.00" fill="white"> </text>
<text text-anchor="start" x="33" y="-69.3" font-family="Times,serif" font-weight="bold" font-size="14.00" fill="white"> main </text>
<text text-anchor="start" x="82" y="-69.3" font-family="Times,serif" font-size="14.00" fill="white"> </text>
<polygon fill="steelblue" stroke="none" points="25,-40.5 25,-61.5 59,-61.5 59,-40.5 25,-40.5"/>
<polygon fill="none" stroke="white" points="25,-40.5 25,-61.5 59,-61.5 59,-40.5 25,-40.5"/>
<text text-anchor="start" x="32.5" y="-47.3" font-family="Times,serif" font-size="14.00" fill="white"> n </text>
<polygon fill="steelblue" stroke="none" points="59,-40.5 59,-61.5 90,-61.5 90,-40.5 59,-40.5"/>
<polygon fill="none" stroke="white" points="59,-40.5 59,-61.5 90,-61.5 90,-40.5 59,-40.5"/>
<text text-anchor="start" x="65" y="-47.3" font-family="Times,serif" font-size="14.00" fill="white"> 5 </text>
<polygon fill="steelblue" stroke="none" points="25,-19.5 25,-40.5 59,-40.5 59,-19.5 25,-19.5"/>
<polygon fill="none" stroke="white" points="25,-19.5 25,-40.5 59,-40.5 59,-19.5 25,-19.5"/>
<text text-anchor="start" x="30.5" y="-26.3" font-family="Times,serif" font-size="14.00" fill="white"> m </text>
<polygon fill="steelblue" stroke="none" points="59,-19.5 59,-40.5 90,-40.5 90,-19.5 59,-19.5"/>
<polygon fill="none" stroke="white" points="59,-19.5 59,-40.5 90,-40.5 90,-19.5 59,-19.5"/>
<text text-anchor="start" x="65" y="-26.3" font-family="Times,serif" font-size="14.00" fill="white"> 6 </text>
</g>
</g>
</svg>
