<?xml version="1.0" encoding="UTF-8" standalone="no"?>
<!DOCTYPE svg PUBLIC "-//W3C//DTD SVG 1.1//EN"
 "http://www.w3.org/Graphics/SVG/1.1/DTD/svg11.dtd">
<!-- Generated by graphviz version 7.1.0 (0)
 -->
<!-- Pages: 1 -->
<svg width="250pt" height="113pt"
 viewBox="0.00 0.00 250.00 113.00" xmlns="http://www.w3.org/2000/svg" xmlns:xlink="http://www.w3.org/1999/xlink">
<g id="graph0" class="graph" transform="scale(1 1) rotate(0) translate(4 109)">
<polygon fill="slategrey" stroke="none" points="-4,4 -4,-109 246,-109 246,4 -4,4"/>
<g id="clust1" class="cluster">
<title>cluster_0</title>
<polygon fill="slateblue" stroke="white" stroke-dasharray="5,2" points="8,-8 8,-97 234,-97 234,-8 8,-8"/>
<text text-anchor="middle" x="121" y="-81.8" font-family="Times,serif" font-size="14.00" fill="white">STACK</text>
</g>
<!-- nodeB -->
<g id="node1" class="node">
<title>nodeB</title>
<polygon fill="none" stroke="slateblue" points="124,-41 124,-62 218,-62 218,-41 124,-41"/>
<text text-anchor="start" x="127" y="-48.8" font-family="Times,serif" font-size="14.00" fill="white"> </text>
<text text-anchor="start" x="132" y="-48.8" font-family="Times,serif" font-weight="bold" font-size="14.00" fill="white"> &#160;add_one </text>
<text text-anchor="start" x="210" y="-48.8" font-family="Times,serif" font-size="14.00" fill="white"> </text>
<polygon fill="steelblue" stroke="none" points="124,-20 124,-41 170,-41 170,-20 124,-20"/>
<polygon fill="none" stroke="white" points="124,-20 124,-41 170,-41 170,-20 124,-20"/>
<text text-anchor="start" x="138" y="-26.8" font-family="Times,serif" font-size="14.00" fill="white"> x </text>
<polygon fill="steelblue" stroke="none" points="170,-20 170,-41 218,-41 218,-20 170,-20"/>
<polygon fill="none" stroke="white" points="170,-20 170,-41 218,-41 218,-20 170,-20"/>
<text text-anchor="start" x="184.5" y="-26.8" font-family="Times,serif" font-size="14.00" fill="white"> 5 </text>
</g>
<!-- nodeA -->
<g id="node2" class="node">
<title>nodeA</title>
<polygon fill="none" stroke="slateblue" points="25,-41 25,-62 90,-62 90,-41 25,-41"/>
<text text-anchor="start" x="28" y="-48.8" font-family="Times,serif" font-size="14.00" fill="white"> </text>
<text text-anchor="start" x="33" y="-48.8" font-family="Times,serif" font-weight="bold" font-size="14.00" fill="white"> main </text>
<text text-anchor="start" x="82" y="-48.8" font-family="Times,serif" font-size="14.00" fill="white"> </text>
<polygon fill="steelblue" stroke="none" points="25,-20 25,-41 57,-41 57,-20 25,-20"/>
<polygon fill="none" stroke="white" points="25,-20 25,-41 57,-41 57,-20 25,-20"/>
<text text-anchor="start" x="31.5" y="-26.8" font-family="Times,serif" font-size="14.00" fill="white"> n </text>
<polygon fill="steelblue" stroke="none" points="57,-20 57,-41 90,-41 90,-20 57,-20"/>
<polygon fill="none" stroke="white" points="57,-20 57,-41 90,-41 90,-20 57,-20"/>
<text text-anchor="start" x="64" y="-26.8" font-family="Times,serif" font-size="14.00" fill="white"> 5 </text>
</g>
</g>
</svg>
