<?xml version="1.0" encoding="UTF-8" standalone="no"?>
<!DOCTYPE svg PUBLIC "-//W3C//DTD SVG 1.1//EN"
 "http://www.w3.org/Graphics/SVG/1.1/DTD/svg11.dtd">
<!-- Generated by graphviz version 7.1.0 (0)
 -->
<!-- Pages: 1 -->
<svg width="216pt" height="116pt"
 viewBox="0.00 0.00 216.00 116.00" xmlns="http://www.w3.org/2000/svg" xmlns:xlink="http://www.w3.org/1999/xlink">
<g id="graph0" class="graph" transform="scale(1 1) rotate(0) translate(4 112)">
<polygon fill="slategrey" stroke="none" points="-4,4 -4,-112 212,-112 212,4 -4,4"/>
<g id="clust1" class="cluster">
<title>cluster_0</title>
<polygon fill="slateblue" stroke="white" stroke-dasharray="5,2" points="130,-8 130,-83 200,-83 200,-8 130,-8"/>
<text text-anchor="middle" x="165" y="-67.8" font-family="Times,serif" font-size="14.00" fill="white">HEAP</text>
</g>
<g id="clust2" class="cluster">
<title>cluster_1</title>
<polygon fill="slateblue" stroke="white" stroke-dasharray="5,2" points="8,-11 8,-100 110,-100 110,-11 8,-11"/>
<text text-anchor="middle" x="59" y="-84.8" font-family="Times,serif" font-size="14.00" fill="white">STACK</text>
</g>
<!-- nodeA -->
<g id="node1" class="node">
<title>nodeA</title>
<polygon fill="steelblue" stroke="none" points="152.5,-23.5 152.5,-44.5 177.5,-44.5 177.5,-23.5 152.5,-23.5"/>
<polygon fill="none" stroke="white" points="153,-23 153,-44 178,-44 178,-23 153,-23"/>
<text text-anchor="start" x="156" y="-29.8" font-family="Times,serif" font-size="14.00" fill="white"> 5 </text>
</g>
<!-- nodeB -->
<g id="node2" class="node">
<title>nodeB</title>
<polygon fill="none" stroke="slateblue" points="24,-44 24,-65 94,-65 94,-44 24,-44"/>
<text text-anchor="start" x="27" y="-51.8" font-family="Times,serif" font-size="14.00" fill="white"> </text>
<text text-anchor="start" x="32" y="-51.8" font-family="Times,serif" font-weight="bold" font-size="14.00" fill="white"> &#160;main </text>
<text text-anchor="start" x="86" y="-51.8" font-family="Times,serif" font-size="14.00" fill="white"> </text>
<polygon fill="steelblue" stroke="none" points="24,-23 24,-44 66,-44 66,-23 24,-23"/>
<polygon fill="none" stroke="white" points="24,-23 24,-44 66,-44 66,-23 24,-23"/>
<text text-anchor="start" x="27.5" y="-30.8" font-family="Times,serif" font-size="14.00" fill="white"> </text>
<text text-anchor="start" x="32.5" y="-30.8" font-family="Times,serif" font-weight="bold" font-size="14.00" fill="white"> &#160;n </text>
<text text-anchor="start" x="57.5" y="-30.8" font-family="Times,serif" font-size="14.00" fill="white"> </text>
<polygon fill="steelblue" stroke="none" points="66,-23 66,-44 94,-44 94,-23 66,-23"/>
<polygon fill="none" stroke="white" points="66,-23 66,-44 94,-44 94,-23 66,-23"/>
<text text-anchor="start" x="69.5" y="-29.8" font-family="Times,serif" font-size="14.00" fill="white"> ⏺ </text>
</g>
<!-- nodeB&#45;&gt;nodeA -->
<g id="edge1" class="edge">
<title>nodeB:f1&#45;&gt;nodeA:f0</title>
<path fill="none" stroke="white" d="M95,-33C111.27,-33 129.67,-33 143.52,-33"/>
<polygon fill="white" stroke="white" points="153.11,-33 143.11,-37.5 148.11,-33 143.11,-33 143.11,-33 143.11,-33 148.11,-33 143.11,-28.5 153.11,-33 153.11,-33"/>
</g>
</g>
</svg>
