<?xml version="1.0" encoding="UTF-8" standalone="no"?>
<!DOCTYPE svg PUBLIC "-//W3C//DTD SVG 1.1//EN"
 "http://www.w3.org/Graphics/SVG/1.1/DTD/svg11.dtd">
<!-- Generated by graphviz version 7.1.0 (0)
 -->
<!-- Pages: 1 -->
<svg width="417pt" height="258pt"
 viewBox="0.00 0.00 417.00 258.00" xmlns="http://www.w3.org/2000/svg" xmlns:xlink="http://www.w3.org/1999/xlink">
<g id="graph0" class="graph" transform="scale(1 1) rotate(0) translate(4 254)">
<polygon fill="slategrey" stroke="none" points="-4,4 -4,-254 413,-254 413,4 -4,4"/>
<g id="clust1" class="cluster">
<title>cluster_0</title>
<polygon fill="slateblue" stroke="white" stroke-dasharray="5,2" points="169,-8 169,-191 401,-191 401,-8 169,-8"/>
<text text-anchor="middle" x="285" y="-175.8" font-family="Times,serif" font-size="14.00" fill="white">HEAP</text>
</g>
<g id="clust2" class="cluster">
<title>cluster_1</title>
<polygon fill="slateblue" stroke="white" stroke-dasharray="5,2" points="8,-85 8,-242 149,-242 149,-85 8,-85"/>
<text text-anchor="middle" x="78.5" y="-226.8" font-family="Times,serif" font-size="14.00" fill="white">STACK</text>
</g>
<!-- nodeA -->
<g id="node1" class="node">
<title>nodeA</title>
<polygon fill="steelblue" stroke="none" points="202.5,-131.5 202.5,-152.5 367.5,-152.5 367.5,-131.5 202.5,-131.5"/>
<polygon fill="none" stroke="white" points="203,-131 203,-152 233,-152 233,-131 203,-131"/>
<text text-anchor="start" x="206" y="-137.8" font-family="Times,serif" font-size="14.00" fill="white"> &#160;F </text>
<polygon fill="none" stroke="white" points="233,-131 233,-152 261,-152 261,-131 233,-131"/>
<text text-anchor="start" x="236" y="-137.8" font-family="Times,serif" font-size="14.00" fill="white"> &#160;e </text>
<polygon fill="none" stroke="white" points="261,-131 261,-152 288,-152 288,-131 261,-131"/>
<text text-anchor="start" x="264" y="-137.8" font-family="Times,serif" font-size="14.00" fill="white"> &#160;r </text>
<polygon fill="none" stroke="white" points="288,-131 288,-152 315,-152 315,-131 288,-131"/>
<text text-anchor="start" x="291" y="-137.8" font-family="Times,serif" font-size="14.00" fill="white"> &#160;r </text>
<polygon fill="none" stroke="white" points="315,-131 315,-152 340,-152 340,-131 315,-131"/>
<text text-anchor="start" x="318" y="-137.8" font-family="Times,serif" font-size="14.00" fill="white"> &#160;i </text>
<polygon fill="none" stroke="white" points="340,-131 340,-152 368,-152 368,-131 340,-131"/>
<text text-anchor="start" x="343" y="-137.8" font-family="Times,serif" font-size="14.00" fill="white"> &#160;s </text>
</g>
<!-- nodeE -->
<!-- nodeD -->
<g id="node3" class="node">
<title>nodeD</title>
<polygon fill="steelblue" stroke="none" points="185,-23.5 185,-44.5 385,-44.5 385,-23.5 185,-23.5"/>
<polygon fill="none" stroke="white" points="185,-23 185,-44 205,-44 205,-23 185,-23"/>
<text text-anchor="start" x="188" y="-29.8" font-family="Times,serif" font-size="14.00" fill="white"> &#160;&#160;</text>
<polygon fill="none" stroke="white" points="205,-23 205,-44 225,-44 225,-23 205,-23"/>
<text text-anchor="start" x="208" y="-29.8" font-family="Times,serif" font-size="14.00" fill="white"> &#160;&#160;</text>
<polygon fill="none" stroke="white" points="225,-23 225,-44 245,-44 245,-23 225,-23"/>
<text text-anchor="start" x="228" y="-29.8" font-family="Times,serif" font-size="14.00" fill="white"> &#160;&#160;</text>
<polygon fill="none" stroke="white" points="245,-23 245,-44 265,-44 265,-23 245,-23"/>
<text text-anchor="start" x="248" y="-29.8" font-family="Times,serif" font-size="14.00" fill="white"> &#160;&#160;</text>
<polygon fill="none" stroke="white" points="265,-23 265,-44 285,-44 285,-23 265,-23"/>
<text text-anchor="start" x="268" y="-29.8" font-family="Times,serif" font-size="14.00" fill="white"> &#160;&#160;</text>
<polygon fill="none" stroke="white" points="285,-23 285,-44 305,-44 305,-23 285,-23"/>
<text text-anchor="start" x="288" y="-29.8" font-family="Times,serif" font-size="14.00" fill="white"> &#160;&#160;</text>
<polygon fill="none" stroke="white" points="305,-23 305,-44 325,-44 325,-23 305,-23"/>
<text text-anchor="start" x="308" y="-29.8" font-family="Times,serif" font-size="14.00" fill="white"> &#160;&#160;</text>
<polygon fill="none" stroke="white" points="325,-23 325,-44 345,-44 345,-23 325,-23"/>
<text text-anchor="start" x="328" y="-29.8" font-family="Times,serif" font-size="14.00" fill="white"> &#160;&#160;</text>
<polygon fill="none" stroke="white" points="345,-23 345,-44 365,-44 365,-23 345,-23"/>
<text text-anchor="start" x="348" y="-29.8" font-family="Times,serif" font-size="14.00" fill="white"> &#160;&#160;</text>
<polygon fill="none" stroke="white" points="365,-23 365,-44 385,-44 385,-23 365,-23"/>
<text text-anchor="start" x="368" y="-29.8" font-family="Times,serif" font-size="14.00" fill="white"> &#160;&#160;</text>
</g>
<!-- nodeB -->
<g id="node4" class="node">
<title>nodeB</title>
<polygon fill="none" stroke="slateblue" points="42.5,-186 42.5,-207 114.5,-207 114.5,-186 42.5,-186"/>
<text text-anchor="start" x="46.5" y="-193.8" font-family="Times,serif" font-size="14.00" fill="white"> </text>
<text text-anchor="start" x="51.5" y="-193.8" font-family="Times,serif" font-weight="bold" font-size="14.00" fill="white"> &#160;main </text>
<text text-anchor="start" x="105.5" y="-193.8" font-family="Times,serif" font-size="14.00" fill="white"> </text>
<polygon fill="grey" stroke="none" points="42.5,-165 42.5,-186 87.5,-186 87.5,-165 42.5,-165"/>
<polygon fill="none" stroke="white" points="42.5,-165 42.5,-186 87.5,-186 87.5,-165 42.5,-165"/>
<text text-anchor="start" x="45.5" y="-171.8" font-family="Times,serif" font-size="14.00" fill="white"> first </text>
<polygon fill="grey" stroke="none" points="87.5,-165 87.5,-186 114.5,-186 114.5,-165 87.5,-165"/>
<polygon fill="none" stroke="white" points="87.5,-165 87.5,-186 114.5,-186 114.5,-165 87.5,-165"/>
<text text-anchor="start" x="90.5" y="-171.8" font-family="Times,serif" font-size="14.00" fill="white"> ⏺ </text>
</g>
<!-- nodeB&#45;&gt;nodeA -->
<g id="edge1" class="edge">
<title>nodeB:f1&#45;&gt;nodeA:f0</title>
<path fill="none" stroke="lightgrey" stroke-dasharray="5,2" d="M115.5,-175C156.81,-175 160.69,-141 202,-141"/>
</g>
<!-- nodeC -->
<g id="node5" class="node">
<title>nodeC</title>
<polygon fill="none" stroke="slateblue" points="24.5,-118 24.5,-139 133.5,-139 133.5,-118 24.5,-118"/>
<text text-anchor="start" x="27.5" y="-125.8" font-family="Times,serif" font-size="14.00" fill="white"> </text>
<text text-anchor="start" x="32.5" y="-125.8" font-family="Times,serif" font-weight="bold" font-size="14.00" fill="white"> &#160;add_suffix </text>
<text text-anchor="start" x="125.5" y="-125.8" font-family="Times,serif" font-size="14.00" fill="white"> </text>
<polygon fill="steelblue" stroke="none" points="24.5,-97 24.5,-118 94.5,-118 94.5,-97 24.5,-97"/>
<polygon fill="none" stroke="white" points="24.5,-97 24.5,-118 94.5,-118 94.5,-97 24.5,-97"/>
<text text-anchor="start" x="35" y="-103.8" font-family="Times,serif" font-size="14.00" fill="white"> name </text>
<polygon fill="steelblue" stroke="none" points="94.5,-97 94.5,-118 133.5,-118 133.5,-97 94.5,-97"/>
<polygon fill="none" stroke="white" points="94.5,-97 94.5,-118 133.5,-118 133.5,-97 94.5,-97"/>
<text text-anchor="start" x="105.5" y="-103.8" font-family="Times,serif" font-size="14.00" fill="white"> ⏺</text>
</g>
<!-- nodeC&#45;&gt;nodeA -->
<g id="edge2" class="edge">
<title>nodeC:f3&#45;&gt;nodeA:f0</title>
<path fill="none" stroke="white" d="M134.5,-107C164.42,-107 167.94,-133.97 192.09,-139.87"/>
<polygon fill="white" stroke="white" points="202,-141 191.55,-144.34 197.03,-140.43 192.06,-139.87 192.06,-139.87 192.06,-139.87 197.03,-140.43 192.57,-135.4 202,-141 202,-141"/>
</g>
</g>
</svg>
