<?xml version="1.0" encoding="UTF-8" standalone="no"?>
<!DOCTYPE svg PUBLIC "-//W3C//DTD SVG 1.1//EN"
 "http://www.w3.org/Graphics/SVG/1.1/DTD/svg11.dtd">
<!-- Generated by graphviz version 7.1.0 (0)
 -->
<!-- Pages: 1 -->
<svg width="94pt" height="182pt"
 viewBox="0.00 0.00 94.00 182.00" xmlns="http://www.w3.org/2000/svg" xmlns:xlink="http://www.w3.org/1999/xlink">
<g id="graph0" class="graph" transform="scale(1 1) rotate(0) translate(4 178)">
<polygon fill="slategrey" stroke="none" points="-4,4 -4,-178 90,-178 90,4 -4,4"/>
<g id="clust1" class="cluster">
<title>cluster_0</title>
<polygon fill="slateblue" stroke="white" stroke-dasharray="5,2" points="8,-8 8,-83 78,-83 78,-8 8,-8"/>
<text text-anchor="middle" x="43" y="-67.8" font-family="Times,serif" font-size="14.00" fill="white">HEAP</text>
</g>
<g id="clust2" class="cluster">
<title>cluster_1</title>
<polygon fill="slateblue" stroke="white" stroke-dasharray="5,2" points="8,-91 8,-166 78,-166 78,-91 8,-91"/>
<text text-anchor="middle" x="43" y="-150.8" font-family="Times,serif" font-size="14.00" fill="white">STACK</text>
</g>
<!-- nodeA -->
<g id="node1" class="node">
<title>nodeA</title>
<polygon fill="none" stroke="slateblue" points="32,-23 32,-44 54,-44 54,-23 32,-23"/>
<text text-anchor="start" x="35.5" y="-30.8" font-family="Times,serif" font-size="14.00" fill="white"> </text>
<text text-anchor="start" x="40.5" y="-30.8" font-family="Times,serif" font-weight="bold" font-size="14.00" fill="white"> </text>
<text text-anchor="start" x="45.5" y="-30.8" font-family="Times,serif" font-size="14.00" fill="white"> </text>
</g>
<!-- nodeB -->
<g id="node2" class="node">
<title>nodeB</title>
<polygon fill="none" stroke="slateblue" points="32,-106 32,-127 54,-127 54,-106 32,-106"/>
<text text-anchor="start" x="35.5" y="-113.8" font-family="Times,serif" font-size="14.00" fill="white"> </text>
<text text-anchor="start" x="40.5" y="-113.8" font-family="Times,serif" font-weight="bold" font-size="14.00" fill="white"> </text>
<text text-anchor="start" x="45.5" y="-113.8" font-family="Times,serif" font-size="14.00" fill="white"> </text>
</g>
</g>
</svg>
