<?xml version="1.0" encoding="UTF-8" standalone="no"?>
<!DOCTYPE svg PUBLIC "-//W3C//DTD SVG 1.1//EN"
 "http://www.w3.org/Graphics/SVG/1.1/DTD/svg11.dtd">
<!-- Generated by graphviz version 7.1.0 (0)
 -->
<!-- Pages: 1 -->
<svg width="126pt" height="196pt"
 viewBox="0.00 0.00 126.00 196.00" xmlns="http://www.w3.org/2000/svg" xmlns:xlink="http://www.w3.org/1999/xlink">
<g id="graph0" class="graph" transform="scale(1 1) rotate(0) translate(4 192)">
<polygon fill="slategrey" stroke="none" points="-4,4 -4,-192 122,-192 122,4 -4,4"/>
<g id="clust1" class="cluster">
<title>cluster_0</title>
<polygon fill="slateblue" stroke="white" stroke-dasharray="5,2" points="24,-8 24,-83 94,-83 94,-8 24,-8"/>
<text text-anchor="middle" x="59" y="-67.8" font-family="Times,serif" font-size="14.00" fill="white">HEAP</text>
</g>
<g id="clust2" class="cluster">
<title>cluster_1</title>
<polygon fill="slateblue" stroke="white" stroke-dasharray="5,2" points="8,-91 8,-180 110,-180 110,-91 8,-91"/>
<text text-anchor="middle" x="59" y="-164.8" font-family="Times,serif" font-size="14.00" fill="white">STACK</text>
</g>
<!-- nodeA -->
<g id="node1" class="node">
<title>nodeA</title>
<polygon fill="none" stroke="slateblue" points="48,-23 48,-44 70,-44 70,-23 48,-23"/>
<text text-anchor="start" x="51.5" y="-30.8" font-family="Times,serif" font-size="14.00" fill="white"> </text>
<text text-anchor="start" x="56.5" y="-30.8" font-family="Times,serif" font-weight="bold" font-size="14.00" fill="white"> </text>
<text text-anchor="start" x="61.5" y="-30.8" font-family="Times,serif" font-size="14.00" fill="white"> </text>
</g>
<!-- nodeB -->
<g id="node2" class="node">
<title>nodeB</title>
<polygon fill="none" stroke="slateblue" points="24,-124 24,-145 94,-145 94,-124 24,-124"/>
<text text-anchor="start" x="27" y="-131.8" font-family="Times,serif" font-size="14.00" fill="white"> </text>
<text text-anchor="start" x="32" y="-131.8" font-family="Times,serif" font-weight="bold" font-size="14.00" fill="white"> &#160;main </text>
<text text-anchor="start" x="86" y="-131.8" font-family="Times,serif" font-size="14.00" fill="white"> </text>
<polygon fill="grey" stroke="none" points="24,-103 24,-124 66,-124 66,-103 24,-103"/>
<polygon fill="none" stroke="white" points="24,-103 24,-124 66,-124 66,-103 24,-103"/>
<text text-anchor="start" x="27.5" y="-110.8" font-family="Times,serif" font-size="14.00" fill="white"> </text>
<text text-anchor="start" x="32.5" y="-110.8" font-family="Times,serif" font-weight="bold" font-size="14.00" fill="white"> &#160;n </text>
<text text-anchor="start" x="57.5" y="-110.8" font-family="Times,serif" font-size="14.00" fill="white"> </text>
<polygon fill="grey" stroke="none" points="66,-103 66,-124 94,-124 94,-103 66,-103"/>
<polygon fill="none" stroke="white" points="66,-103 66,-124 94,-124 94,-103 66,-103"/>
<text text-anchor="start" x="69.5" y="-109.8" font-family="Times,serif" font-size="14.00" fill="white"> ⏺ </text>
</g>
</g>
</svg>
