<?xml version="1.0" encoding="UTF-8" standalone="no"?>
<!DOCTYPE svg PUBLIC "-//W3C//DTD SVG 1.1//EN"
 "http://www.w3.org/Graphics/SVG/1.1/DTD/svg11.dtd">
<!-- Generated by graphviz version 7.1.0 (0)
 -->
<!-- Pages: 1 -->
<svg width="446pt" height="138pt"
 viewBox="0.00 0.00 446.00 138.00" xmlns="http://www.w3.org/2000/svg" xmlns:xlink="http://www.w3.org/1999/xlink">
<g id="graph0" class="graph" transform="scale(1 1) rotate(0) translate(4 134)">
<polygon fill="slategrey" stroke="none" points="-4,4 -4,-134 442,-134 442,4 -4,4"/>
<g id="clust1" class="cluster">
<title>cluster_0</title>
<polygon fill="slateblue" stroke="white" stroke-dasharray="5,2" points="131,-8 131,-83 430,-83 430,-8 131,-8"/>
<text text-anchor="middle" x="280.5" y="-67.8" font-family="Times,serif" font-size="14.00" fill="white">HEAP</text>
</g>
<g id="clust2" class="cluster">
<title>cluster_1</title>
<polygon fill="slateblue" stroke="white" stroke-dasharray="5,2" points="8,-11 8,-122 111,-122 111,-11 8,-11"/>
<text text-anchor="middle" x="59.5" y="-106.8" font-family="Times,serif" font-size="14.00" fill="white">STACK</text>
</g>
<!-- nodeD -->
<g id="node1" class="node">
<title>nodeD</title>
<polygon fill="steelblue" stroke="none" points="147,-23.5 147,-44.5 414,-44.5 414,-23.5 147,-23.5"/>
<polygon fill="none" stroke="white" points="147.5,-23 147.5,-44 177.5,-44 177.5,-23 147.5,-23"/>
<text text-anchor="start" x="150.5" y="-29.8" font-family="Times,serif" font-size="14.00" fill="white"> &#160;F </text>
<polygon fill="none" stroke="white" points="177.5,-23 177.5,-44 205.5,-44 205.5,-23 177.5,-23"/>
<text text-anchor="start" x="180.5" y="-29.8" font-family="Times,serif" font-size="14.00" fill="white"> &#160;e </text>
<polygon fill="none" stroke="white" points="205.5,-23 205.5,-44 232.5,-44 232.5,-23 205.5,-23"/>
<text text-anchor="start" x="208.5" y="-29.8" font-family="Times,serif" font-size="14.00" fill="white"> &#160;r </text>
<polygon fill="none" stroke="white" points="232.5,-23 232.5,-44 259.5,-44 259.5,-23 232.5,-23"/>
<text text-anchor="start" x="235.5" y="-29.8" font-family="Times,serif" font-size="14.00" fill="white"> &#160;r </text>
<polygon fill="none" stroke="white" points="259.5,-23 259.5,-44 284.5,-44 284.5,-23 259.5,-23"/>
<text text-anchor="start" x="262.5" y="-29.8" font-family="Times,serif" font-size="14.00" fill="white"> &#160;i </text>
<polygon fill="none" stroke="white" points="284.5,-23 284.5,-44 312.5,-44 312.5,-23 284.5,-23"/>
<text text-anchor="start" x="287.5" y="-29.8" font-family="Times,serif" font-size="14.00" fill="white"> &#160;s </text>
<polygon fill="none" stroke="white" points="312.5,-23 312.5,-44 337.5,-44 337.5,-23 312.5,-23"/>
<text text-anchor="start" x="315.5" y="-29.8" font-family="Times,serif" font-size="14.00" fill="white"> &#160;&#160;&#160;</text>
<polygon fill="none" stroke="white" points="337.5,-23 337.5,-44 362.5,-44 362.5,-23 337.5,-23"/>
<text text-anchor="start" x="340.5" y="-29.8" font-family="Times,serif" font-size="14.00" fill="white"> &#160;J </text>
<polygon fill="none" stroke="white" points="362.5,-23 362.5,-44 389.5,-44 389.5,-23 362.5,-23"/>
<text text-anchor="start" x="365.5" y="-29.8" font-family="Times,serif" font-size="14.00" fill="white"> &#160;r </text>
<polygon fill="none" stroke="white" points="389.5,-23 389.5,-44 414.5,-44 414.5,-23 389.5,-23"/>
<text text-anchor="start" x="392.5" y="-29.8" font-family="Times,serif" font-size="14.00" fill="white"> &#160;. </text>
</g>
<!-- nodeB -->
<g id="node2" class="node">
<title>nodeB</title>
<polygon fill="none" stroke="slateblue" points="24.5,-65 24.5,-86 95.5,-86 95.5,-65 24.5,-65"/>
<text text-anchor="start" x="28" y="-72.8" font-family="Times,serif" font-size="14.00" fill="white"> </text>
<text text-anchor="start" x="33" y="-72.8" font-family="Times,serif" font-weight="bold" font-size="14.00" fill="white"> &#160;main </text>
<text text-anchor="start" x="87" y="-72.8" font-family="Times,serif" font-size="14.00" fill="white"> </text>
<polygon fill="grey" stroke="none" points="24.5,-44 24.5,-65 69.5,-65 69.5,-44 24.5,-44"/>
<polygon fill="none" stroke="white" points="24.5,-44 24.5,-65 69.5,-65 69.5,-44 24.5,-44"/>
<text text-anchor="start" x="27.5" y="-50.8" font-family="Times,serif" font-size="14.00" fill="white"> first </text>
<polygon fill="grey" stroke="none" points="69.5,-44 69.5,-65 95.5,-65 95.5,-44 69.5,-44"/>
<polygon fill="none" stroke="white" points="69.5,-44 69.5,-65 95.5,-65 95.5,-44 69.5,-44"/>
<text text-anchor="start" x="72.5" y="-50.8" font-family="Times,serif" font-size="14.00" fill="white"> ⦻ </text>
<polygon fill="steelblue" stroke="none" points="24.5,-23 24.5,-44 69.5,-44 69.5,-23 24.5,-23"/>
<polygon fill="none" stroke="white" points="24.5,-23 24.5,-44 69.5,-44 69.5,-23 24.5,-23"/>
<text text-anchor="start" x="30.5" y="-29.8" font-family="Times,serif" font-size="14.00" fill="white"> full </text>
<polygon fill="steelblue" stroke="none" points="69.5,-23 69.5,-44 95.5,-44 95.5,-23 69.5,-23"/>
<polygon fill="none" stroke="white" points="69.5,-23 69.5,-44 95.5,-44 95.5,-23 69.5,-23"/>
<text text-anchor="start" x="74" y="-29.8" font-family="Times,serif" font-size="14.00" fill="white">⏺ </text>
</g>
<!-- nodeB&#45;&gt;nodeD -->
<g id="edge1" class="edge">
<title>nodeB:f3&#45;&gt;nodeD:f2</title>
<path fill="none" stroke="white" d="M96.5,-33C115.08,-33 122.01,-33 136.76,-33"/>
<polygon fill="white" stroke="white" points="146.5,-33 136.5,-37.5 141.5,-33 136.5,-33 136.5,-33 136.5,-33 141.5,-33 136.5,-28.5 146.5,-33 146.5,-33"/>
</g>
</g>
</svg>
