<?xml version="1.0" encoding="UTF-8" standalone="no"?>
<!DOCTYPE svg PUBLIC "-//W3C//DTD SVG 1.1//EN"
 "http://www.w3.org/Graphics/SVG/1.1/DTD/svg11.dtd">
<!-- Generated by graphviz version 7.1.0 (0)
 -->
<!-- Pages: 1 -->
<svg width="521pt" height="135pt"
 viewBox="0.00 0.00 521.00 135.00" xmlns="http://www.w3.org/2000/svg" xmlns:xlink="http://www.w3.org/1999/xlink">
<g id="graph0" class="graph" transform="scale(1 1) rotate(0) translate(4 131)">
<polygon fill="slategrey" stroke="none" points="-4,4 -4,-131 517,-131 517,4 -4,4"/>
<g id="clust1" class="cluster">
<title>cluster_0</title>
<polygon fill="slateblue" stroke="white" stroke-dasharray="5,2" points="130,-16 130,-91 505,-91 505,-16 130,-16"/>
<text text-anchor="middle" x="317.5" y="-75.8" font-family="Times,serif" font-size="14.00" fill="white">HEAP</text>
</g>
<g id="clust2" class="cluster">
<title>cluster_1</title>
<polygon fill="slateblue" stroke="white" stroke-dasharray="5,2" points="8,-8 8,-119 110,-119 110,-8 8,-8"/>
<text text-anchor="middle" x="59" y="-103.8" font-family="Times,serif" font-size="14.00" fill="white">STACK</text>
</g>
<!-- nodeA -->
<g id="node1" class="node">
<title>nodeA</title>
<polygon fill="steelblue" stroke="none" points="146,-31.5 146,-52.5 489,-52.5 489,-31.5 146,-31.5"/>
<polygon fill="none" stroke="white" points="146.5,-31 146.5,-52 171.5,-52 171.5,-31 146.5,-31"/>
<text text-anchor="start" x="149.5" y="-37.8" font-family="Times,serif" font-size="14.00" fill="white"> 0 </text>
<polygon fill="none" stroke="white" points="171.5,-31 171.5,-52 196.5,-52 196.5,-31 171.5,-31"/>
<text text-anchor="start" x="174.5" y="-37.8" font-family="Times,serif" font-size="14.00" fill="white"> 0 </text>
<polygon fill="none" stroke="white" points="196.5,-31 196.5,-52 221.5,-52 221.5,-31 196.5,-31"/>
<text text-anchor="start" x="199.5" y="-37.8" font-family="Times,serif" font-size="14.00" fill="white"> 0 </text>
<polygon fill="none" stroke="white" points="221.5,-31 221.5,-52 246.5,-52 246.5,-31 221.5,-31"/>
<text text-anchor="start" x="224.5" y="-37.8" font-family="Times,serif" font-size="14.00" fill="white"> 0 </text>
<polygon fill="none" stroke="white" points="246.5,-31 246.5,-52 271.5,-52 271.5,-31 246.5,-31"/>
<text text-anchor="start" x="249.5" y="-37.8" font-family="Times,serif" font-size="14.00" fill="white"> 0 </text>
<polygon fill="none" stroke="white" points="271.5,-31 271.5,-52 296.5,-52 296.5,-31 271.5,-31"/>
<text text-anchor="start" x="274.5" y="-37.8" font-family="Times,serif" font-size="14.00" fill="white"> 0 </text>
<polygon fill="none" stroke="white" points="296.5,-31 296.5,-52 321.5,-52 321.5,-31 296.5,-31"/>
<text text-anchor="start" x="299.5" y="-37.8" font-family="Times,serif" font-size="14.00" fill="white"> 0 </text>
<polygon fill="none" stroke="white" points="321.5,-31 321.5,-52 346.5,-52 346.5,-31 321.5,-31"/>
<text text-anchor="start" x="324.5" y="-37.8" font-family="Times,serif" font-size="14.00" fill="white"> 0 </text>
<polygon fill="none" stroke="white" points="346.5,-31 346.5,-52 371.5,-52 371.5,-31 346.5,-31"/>
<text text-anchor="start" x="349.5" y="-37.8" font-family="Times,serif" font-size="14.00" fill="white"> 0 </text>
<polygon fill="none" stroke="white" points="371.5,-31 371.5,-52 396.5,-52 396.5,-31 371.5,-31"/>
<text text-anchor="start" x="374.5" y="-37.8" font-family="Times,serif" font-size="14.00" fill="white"> 0 </text>
<polygon fill="none" stroke="white" points="396.5,-31 396.5,-52 421.5,-52 421.5,-31 396.5,-31"/>
<text text-anchor="start" x="399.5" y="-37.8" font-family="Times,serif" font-size="14.00" fill="white"> 0 </text>
<polygon fill="none" stroke="white" points="421.5,-31 421.5,-52 464.5,-52 464.5,-31 421.5,-31"/>
<text text-anchor="start" x="424.5" y="-37.8" font-family="Times,serif" font-size="14.00" fill="white"> &#160;. . . </text>
<polygon fill="none" stroke="white" points="464.5,-31 464.5,-52 489.5,-52 489.5,-31 464.5,-31"/>
<text text-anchor="start" x="467.5" y="-37.8" font-family="Times,serif" font-size="14.00" fill="white"> 0 </text>
</g>
<!-- nodeB -->
<g id="node2" class="node">
<title>nodeB</title>
<polygon fill="none" stroke="slateblue" points="24,-62 24,-83 94,-83 94,-62 24,-62"/>
<text text-anchor="start" x="27" y="-69.8" font-family="Times,serif" font-size="14.00" fill="white"> </text>
<text text-anchor="start" x="32" y="-69.8" font-family="Times,serif" font-weight="bold" font-size="14.00" fill="white"> &#160;main </text>
<text text-anchor="start" x="86" y="-69.8" font-family="Times,serif" font-size="14.00" fill="white"> </text>
<polygon fill="grey" stroke="none" points="24,-41 24,-62 66,-62 66,-41 24,-41"/>
<polygon fill="none" stroke="white" points="24,-41 24,-62 66,-62 66,-41 24,-41"/>
<text text-anchor="start" x="27.5" y="-48.8" font-family="Times,serif" font-size="14.00" fill="white"> </text>
<text text-anchor="start" x="32.5" y="-48.8" font-family="Times,serif" font-weight="bold" font-size="14.00" fill="white"> &#160;n </text>
<text text-anchor="start" x="57.5" y="-48.8" font-family="Times,serif" font-size="14.00" fill="white"> </text>
<polygon fill="grey" stroke="none" points="66,-41 66,-62 94,-62 94,-41 66,-41"/>
<polygon fill="none" stroke="white" points="66,-41 66,-62 94,-62 94,-41 66,-41"/>
<text text-anchor="start" x="69.5" y="-47.8" font-family="Times,serif" font-size="14.00" fill="white"> ⏺ </text>
<polygon fill="steelblue" stroke="none" points="24,-20 24,-41 66,-41 66,-20 24,-20"/>
<polygon fill="none" stroke="white" points="24,-20 24,-41 66,-41 66,-20 24,-20"/>
<text text-anchor="start" x="27.5" y="-27.8" font-family="Times,serif" font-size="14.00" fill="white"> </text>
<text text-anchor="start" x="32.5" y="-27.8" font-family="Times,serif" font-weight="bold" font-size="14.00" fill="white"> m </text>
<text text-anchor="start" x="57.5" y="-27.8" font-family="Times,serif" font-size="14.00" fill="white"> </text>
<polygon fill="steelblue" stroke="none" points="66,-20 66,-41 94,-41 94,-20 66,-20"/>
<polygon fill="none" stroke="white" points="66,-20 66,-41 94,-41 94,-20 66,-20"/>
<text text-anchor="start" x="69.5" y="-26.8" font-family="Times,serif" font-size="14.00" fill="white"> ⏺ </text>
</g>
<!-- nodeB&#45;&gt;nodeA -->
<g id="edge1" class="edge">
<title>nodeB:f1&#45;&gt;nodeA:f0</title>
<path fill="none" stroke="lightgrey" stroke-dasharray="5,2" d="M95,-51C117.88,-51 122.62,-41 145.5,-41"/>
</g>
<!-- nodeB&#45;&gt;nodeA -->
<g id="edge2" class="edge">
<title>nodeB:f2&#45;&gt;nodeA:f0</title>
<path fill="none" stroke="white" d="M95,-30C114.38,-30 120.66,-37.83 135.94,-40.28"/>
<polygon fill="white" stroke="white" points="145.5,-41 135.19,-44.73 140.51,-40.62 135.53,-40.25 135.53,-40.25 135.53,-40.25 140.51,-40.62 135.87,-35.76 145.5,-41 145.5,-41"/>
</g>
</g>
</svg>
