<?xml version="1.0" encoding="UTF-8" standalone="no"?>
<!DOCTYPE svg PUBLIC "-//W3C//DTD SVG 1.1//EN"
 "http://www.w3.org/Graphics/SVG/1.1/DTD/svg11.dtd">
<!-- Generated by graphviz version 7.1.0 (0)
 -->
<!-- Pages: 1 -->
<svg width="382pt" height="181pt"
 viewBox="0.00 0.00 382.00 181.00" xmlns="http://www.w3.org/2000/svg" xmlns:xlink="http://www.w3.org/1999/xlink">
<g id="graph0" class="graph" transform="scale(1 1) rotate(0) translate(4 177)">
<polygon fill="slategrey" stroke="none" points="-4,4 -4,-177 378,-177 378,4 -4,4"/>
<g id="clust1" class="cluster">
<title>cluster_0</title>
<polygon fill="slateblue" stroke="white" stroke-dasharray="5,2" points="169,-40 169,-115 366,-115 366,-40 169,-40"/>
<text text-anchor="middle" x="267.5" y="-99.8" font-family="Times,serif" font-size="14.00" fill="white">HEAP</text>
</g>
<g id="clust2" class="cluster">
<title>cluster_1</title>
<polygon fill="slateblue" stroke="white" stroke-dasharray="5,2" points="8,-8 8,-165 149,-165 149,-8 8,-8"/>
<text text-anchor="middle" x="78.5" y="-149.8" font-family="Times,serif" font-size="14.00" fill="white">STACK</text>
</g>
<!-- nodeA -->
<g id="node1" class="node">
<title>nodeA</title>
<polygon fill="steelblue" stroke="none" points="185,-55.5 185,-76.5 350,-76.5 350,-55.5 185,-55.5"/>
<polygon fill="none" stroke="white" points="185.5,-55 185.5,-76 215.5,-76 215.5,-55 185.5,-55"/>
<text text-anchor="start" x="188.5" y="-61.8" font-family="Times,serif" font-size="14.00" fill="white"> &#160;F </text>
<polygon fill="none" stroke="white" points="215.5,-55 215.5,-76 243.5,-76 243.5,-55 215.5,-55"/>
<text text-anchor="start" x="218.5" y="-61.8" font-family="Times,serif" font-size="14.00" fill="white"> &#160;e </text>
<polygon fill="none" stroke="white" points="243.5,-55 243.5,-76 270.5,-76 270.5,-55 243.5,-55"/>
<text text-anchor="start" x="246.5" y="-61.8" font-family="Times,serif" font-size="14.00" fill="white"> &#160;r </text>
<polygon fill="none" stroke="white" points="270.5,-55 270.5,-76 297.5,-76 297.5,-55 270.5,-55"/>
<text text-anchor="start" x="273.5" y="-61.8" font-family="Times,serif" font-size="14.00" fill="white"> &#160;r </text>
<polygon fill="none" stroke="white" points="297.5,-55 297.5,-76 322.5,-76 322.5,-55 297.5,-55"/>
<text text-anchor="start" x="300.5" y="-61.8" font-family="Times,serif" font-size="14.00" fill="white"> &#160;i </text>
<polygon fill="none" stroke="white" points="322.5,-55 322.5,-76 350.5,-76 350.5,-55 322.5,-55"/>
<text text-anchor="start" x="325.5" y="-61.8" font-family="Times,serif" font-size="14.00" fill="white"> &#160;s </text>
</g>
<!-- nodeB -->
<g id="node2" class="node">
<title>nodeB</title>
<polygon fill="none" stroke="slateblue" points="42.5,-109 42.5,-130 114.5,-130 114.5,-109 42.5,-109"/>
<text text-anchor="start" x="46.5" y="-116.8" font-family="Times,serif" font-size="14.00" fill="white"> </text>
<text text-anchor="start" x="51.5" y="-116.8" font-family="Times,serif" font-weight="bold" font-size="14.00" fill="white"> &#160;main </text>
<text text-anchor="start" x="105.5" y="-116.8" font-family="Times,serif" font-size="14.00" fill="white"> </text>
<polygon fill="grey" stroke="none" points="42.5,-88 42.5,-109 87.5,-109 87.5,-88 42.5,-88"/>
<polygon fill="none" stroke="white" points="42.5,-88 42.5,-109 87.5,-109 87.5,-88 42.5,-88"/>
<text text-anchor="start" x="45.5" y="-94.8" font-family="Times,serif" font-size="14.00" fill="white"> first </text>
<polygon fill="grey" stroke="none" points="87.5,-88 87.5,-109 114.5,-109 114.5,-88 87.5,-88"/>
<polygon fill="none" stroke="white" points="87.5,-88 87.5,-109 114.5,-109 114.5,-88 87.5,-88"/>
<text text-anchor="start" x="90.5" y="-94.8" font-family="Times,serif" font-size="14.00" fill="white"> ⏺ </text>
</g>
<!-- nodeB&#45;&gt;nodeA -->
<g id="edge1" class="edge">
<title>nodeB:f1&#45;&gt;nodeA:f0</title>
<path fill="none" stroke="lightgrey" stroke-dasharray="5,2" d="M115.5,-98C149.49,-98 150.51,-65 184.5,-65"/>
</g>
<!-- nodeC -->
<g id="node3" class="node">
<title>nodeC</title>
<polygon fill="none" stroke="slateblue" points="24.5,-41 24.5,-62 133.5,-62 133.5,-41 24.5,-41"/>
<text text-anchor="start" x="27.5" y="-48.8" font-family="Times,serif" font-size="14.00" fill="white"> </text>
<text text-anchor="start" x="32.5" y="-48.8" font-family="Times,serif" font-weight="bold" font-size="14.00" fill="white"> &#160;add_suffix </text>
<text text-anchor="start" x="125.5" y="-48.8" font-family="Times,serif" font-size="14.00" fill="white"> </text>
<polygon fill="steelblue" stroke="none" points="24.5,-20 24.5,-41 94.5,-41 94.5,-20 24.5,-20"/>
<polygon fill="none" stroke="white" points="24.5,-20 24.5,-41 94.5,-41 94.5,-20 24.5,-20"/>
<text text-anchor="start" x="35" y="-26.8" font-family="Times,serif" font-size="14.00" fill="white"> name </text>
<polygon fill="steelblue" stroke="none" points="94.5,-20 94.5,-41 133.5,-41 133.5,-20 94.5,-20"/>
<polygon fill="none" stroke="white" points="94.5,-20 94.5,-41 133.5,-41 133.5,-20 94.5,-20"/>
<text text-anchor="start" x="105.5" y="-26.8" font-family="Times,serif" font-size="14.00" fill="white"> ⏺</text>
</g>
<!-- nodeC&#45;&gt;nodeA -->
<g id="edge2" class="edge">
<title>nodeC:f3&#45;&gt;nodeA:f0</title>
<path fill="none" stroke="white" d="M134.5,-30C157.81,-30 157.95,-55.85 174.74,-63.12"/>
<polygon fill="white" stroke="white" points="184.5,-65 173.83,-67.52 179.59,-64.05 174.68,-63.11 174.68,-63.11 174.68,-63.11 179.59,-64.05 175.53,-58.69 184.5,-65 184.5,-65"/>
</g>
</g>
</svg>
