<?xml version="1.0" encoding="UTF-8" standalone="no"?>
<!DOCTYPE svg PUBLIC "-//W3C//DTD SVG 1.1//EN"
 "http://www.w3.org/Graphics/SVG/1.1/DTD/svg11.dtd">
<!-- Generated by graphviz version 7.1.0 (0)
 -->
<!-- Pages: 1 -->
<svg width="229pt" height="203pt"
 viewBox="0.00 0.00 229.00 203.00" xmlns="http://www.w3.org/2000/svg" xmlns:xlink="http://www.w3.org/1999/xlink">
<g id="graph0" class="graph" transform="scale(1 1) rotate(0) translate(4 199)">
<polygon fill="slategrey" stroke="none" points="-4,4 -4,-199 225,-199 225,4 -4,4"/>
<g id="clust1" class="cluster">
<title>cluster_0</title>
<polygon fill="slateblue" stroke="white" stroke-dasharray="5,2" points="143,-83 143,-158 213,-158 213,-83 143,-83"/>
<text text-anchor="middle" x="178" y="-142.8" font-family="Times,serif" font-size="14.00" fill="white">HEAP</text>
</g>
<g id="clust2" class="cluster">
<title>cluster_1</title>
<polygon fill="slateblue" stroke="white" stroke-dasharray="5,2" points="8,-8 8,-187 123,-187 123,-8 8,-8"/>
<text text-anchor="middle" x="65.5" y="-171.8" font-family="Times,serif" font-size="14.00" fill="white">STACK</text>
</g>
<!-- nodeA -->
<g id="node1" class="node">
<title>nodeA</title>
<polygon fill="steelblue" stroke="none" points="165.5,-98.5 165.5,-119.5 190.5,-119.5 190.5,-98.5 165.5,-98.5"/>
<polygon fill="none" stroke="white" points="166,-98 166,-119 191,-119 191,-98 166,-98"/>
<text text-anchor="start" x="169" y="-104.8" font-family="Times,serif" font-size="14.00" fill="white"> 5 </text>
</g>
<!-- nodeB -->
<g id="node2" class="node">
<title>nodeB</title>
<polygon fill="none" stroke="slateblue" points="30.5,-130 30.5,-151 100.5,-151 100.5,-130 30.5,-130"/>
<text text-anchor="start" x="33.5" y="-137.8" font-family="Times,serif" font-size="14.00" fill="white"> </text>
<text text-anchor="start" x="38.5" y="-137.8" font-family="Times,serif" font-weight="bold" font-size="14.00" fill="white"> &#160;main </text>
<text text-anchor="start" x="92.5" y="-137.8" font-family="Times,serif" font-size="14.00" fill="white"> </text>
<polygon fill="grey" stroke="none" points="30.5,-109 30.5,-130 72.5,-130 72.5,-109 30.5,-109"/>
<polygon fill="none" stroke="white" points="30.5,-109 30.5,-130 72.5,-130 72.5,-109 30.5,-109"/>
<text text-anchor="start" x="34" y="-116.8" font-family="Times,serif" font-size="14.00" fill="white"> </text>
<text text-anchor="start" x="39" y="-116.8" font-family="Times,serif" font-weight="bold" font-size="14.00" fill="white"> &#160;n </text>
<text text-anchor="start" x="64" y="-116.8" font-family="Times,serif" font-size="14.00" fill="white"> </text>
<polygon fill="grey" stroke="none" points="72.5,-109 72.5,-130 100.5,-130 100.5,-109 72.5,-109"/>
<polygon fill="none" stroke="white" points="72.5,-109 72.5,-130 100.5,-130 100.5,-109 72.5,-109"/>
<text text-anchor="start" x="76" y="-115.8" font-family="Times,serif" font-size="14.00" fill="white"> ⏺ </text>
<polygon fill="steelblue" stroke="none" points="30.5,-88 30.5,-109 72.5,-109 72.5,-88 30.5,-88"/>
<polygon fill="none" stroke="white" points="30.5,-88 30.5,-109 72.5,-109 72.5,-88 30.5,-88"/>
<text text-anchor="start" x="34" y="-95.8" font-family="Times,serif" font-size="14.00" fill="white"> </text>
<text text-anchor="start" x="39" y="-95.8" font-family="Times,serif" font-weight="bold" font-size="14.00" fill="white"> m </text>
<text text-anchor="start" x="64" y="-95.8" font-family="Times,serif" font-size="14.00" fill="white"> </text>
<polygon fill="steelblue" stroke="none" points="72.5,-88 72.5,-109 100.5,-109 100.5,-88 72.5,-88"/>
<polygon fill="none" stroke="white" points="72.5,-88 72.5,-109 100.5,-109 100.5,-88 72.5,-88"/>
<text text-anchor="start" x="76" y="-94.8" font-family="Times,serif" font-size="14.00" fill="white"> ⏺ </text>
</g>
<!-- nodeB&#45;&gt;nodeA -->
<g id="edge1" class="edge">
<title>nodeB:f1&#45;&gt;nodeA:f0</title>
<path fill="none" stroke="lightgrey" stroke-dasharray="5,2" d="M101.5,-119C120.25,-119 141.33,-115.72 156.6,-112.74"/>
<polygon fill="lightgrey" stroke="lightgrey" points="166.15,-110.78 157.27,-117.2 161.25,-111.79 156.36,-112.8 156.36,-112.8 156.36,-112.8 161.25,-111.79 155.45,-108.39 166.15,-110.78 166.15,-110.78"/>
</g>
<!-- nodeB&#45;&gt;nodeA -->
<g id="edge2" class="edge">
<title>nodeB:f2&#45;&gt;nodeA:f0</title>
<path fill="none" stroke="white" d="M101.5,-98C120.22,-98 141.3,-100.98 156.58,-103.69"/>
<polygon fill="white" stroke="white" points="166.14,-105.48 155.48,-108.06 161.22,-104.56 156.31,-103.64 156.31,-103.64 156.31,-103.64 161.22,-104.56 157.14,-99.21 166.14,-105.48 166.14,-105.48"/>
</g>
<!-- nodeC -->
<g id="node3" class="node">
<title>nodeC</title>
<polygon fill="none" stroke="slateblue" points="24.5,-41 24.5,-62 107.5,-62 107.5,-41 24.5,-41"/>
<text text-anchor="start" x="27.5" y="-48.8" font-family="Times,serif" font-size="14.00" fill="white"> </text>
<text text-anchor="start" x="32.5" y="-48.8" font-family="Times,serif" font-weight="bold" font-size="14.00" fill="white"> &#160;funcao </text>
<text text-anchor="start" x="99.5" y="-48.8" font-family="Times,serif" font-size="14.00" fill="white"> </text>
<polygon fill="steelblue" stroke="none" points="24.5,-20 24.5,-41 74.5,-41 74.5,-20 24.5,-20"/>
<polygon fill="none" stroke="white" points="24.5,-20 24.5,-41 74.5,-41 74.5,-20 24.5,-20"/>
<text text-anchor="start" x="35.5" y="-27.8" font-family="Times,serif" font-size="14.00" fill="white"> </text>
<text text-anchor="start" x="40.5" y="-27.8" font-family="Times,serif" font-weight="bold" font-size="14.00" fill="white"> x </text>
<text text-anchor="start" x="58.5" y="-27.8" font-family="Times,serif" font-size="14.00" fill="white"> </text>
<polygon fill="steelblue" stroke="none" points="74.5,-20 74.5,-41 107.5,-41 107.5,-20 74.5,-20"/>
<polygon fill="none" stroke="white" points="74.5,-20 74.5,-41 107.5,-41 107.5,-20 74.5,-20"/>
<text text-anchor="start" x="86" y="-26.8" font-family="Times,serif" font-size="14.00" fill="white"> &#160;</text>
</g>
</g>
</svg>
