<?xml version="1.0" encoding="UTF-8" standalone="no"?>
<!DOCTYPE svg PUBLIC "-//W3C//DTD SVG 1.1//EN"
 "http://www.w3.org/Graphics/SVG/1.1/DTD/svg11.dtd">
<!-- Generated by graphviz version 7.1.0 (0)
 -->
<!-- Pages: 1 -->
<svg width="216pt" height="146pt"
 viewBox="0.00 0.00 216.00 146.00" xmlns="http://www.w3.org/2000/svg" xmlns:xlink="http://www.w3.org/1999/xlink">
<g id="graph0" class="graph" transform="scale(1 1) rotate(0) translate(4 142)">
<polygon fill="slategrey" stroke="none" points="-4,4 -4,-142 212,-142 212,4 -4,4"/>
<g id="clust1" class="cluster">
<title>cluster_0</title>
<polygon fill="slateblue" stroke="white" stroke-dasharray="5,2" points="130,-8 130,-97 200,-97 200,-8 130,-8"/>
<text text-anchor="middle" x="165" y="-81.8" font-family="Times,serif" font-size="14.00" fill="white">HEAP</text>
</g>
<g id="clust2" class="cluster">
<title>cluster_1</title>
<polygon fill="slateblue" stroke="white" stroke-dasharray="5,2" points="8,-19 8,-130 110,-130 110,-19 8,-19"/>
<text text-anchor="middle" x="59" y="-114.8" font-family="Times,serif" font-size="14.00" fill="white">STACK</text>
</g>
<!-- nodeA -->
<g id="node1" class="node">
<title>nodeA</title>
<polygon fill="steelblue" stroke="none" points="148,-20 148,-62 182,-62 182,-20 148,-20"/>
<polygon fill="none" stroke="white" points="148,-41 148,-62 182,-62 182,-41 148,-41"/>
<text text-anchor="start" x="155.5" y="-47.8" font-family="Times,serif" font-size="14.00" fill="white"> 5 </text>
<polygon fill="none" stroke="white" points="148,-20 148,-41 182,-41 182,-20 148,-20"/>
<text text-anchor="start" x="151" y="-26.8" font-family="Times,serif" font-size="14.00" fill="white"> 10 </text>
</g>
<!-- nodeB -->
<g id="node2" class="node">
<title>nodeB</title>
<polygon fill="none" stroke="slateblue" points="24,-73 24,-94 94,-94 94,-73 24,-73"/>
<text text-anchor="start" x="27" y="-80.8" font-family="Times,serif" font-size="14.00" fill="white"> </text>
<text text-anchor="start" x="32" y="-80.8" font-family="Times,serif" font-weight="bold" font-size="14.00" fill="white"> &#160;main </text>
<text text-anchor="start" x="86" y="-80.8" font-family="Times,serif" font-size="14.00" fill="white"> </text>
<polygon fill="grey" stroke="none" points="24,-52 24,-73 66,-73 66,-52 24,-52"/>
<polygon fill="none" stroke="white" points="24,-52 24,-73 66,-73 66,-52 24,-52"/>
<text text-anchor="start" x="27.5" y="-59.8" font-family="Times,serif" font-size="14.00" fill="white"> </text>
<text text-anchor="start" x="32.5" y="-59.8" font-family="Times,serif" font-weight="bold" font-size="14.00" fill="white"> &#160;n </text>
<text text-anchor="start" x="57.5" y="-59.8" font-family="Times,serif" font-size="14.00" fill="white"> </text>
<polygon fill="grey" stroke="none" points="66,-52 66,-73 94,-73 94,-52 66,-52"/>
<polygon fill="none" stroke="white" points="66,-52 66,-73 94,-73 94,-52 66,-52"/>
<text text-anchor="start" x="69.5" y="-58.8" font-family="Times,serif" font-size="14.00" fill="white"> ⏺ </text>
<polygon fill="steelblue" stroke="none" points="24,-31 24,-52 66,-52 66,-31 24,-31"/>
<polygon fill="none" stroke="white" points="24,-31 24,-52 66,-52 66,-31 24,-31"/>
<text text-anchor="start" x="27.5" y="-38.8" font-family="Times,serif" font-size="14.00" fill="white"> </text>
<text text-anchor="start" x="32.5" y="-38.8" font-family="Times,serif" font-weight="bold" font-size="14.00" fill="white"> m </text>
<text text-anchor="start" x="57.5" y="-38.8" font-family="Times,serif" font-size="14.00" fill="white"> </text>
<polygon fill="steelblue" stroke="none" points="66,-31 66,-52 94,-52 94,-31 66,-31"/>
<polygon fill="none" stroke="white" points="66,-31 66,-52 94,-52 94,-31 66,-31"/>
<text text-anchor="start" x="69.5" y="-37.8" font-family="Times,serif" font-size="14.00" fill="white"> ⏺ </text>
</g>
<!-- nodeB&#45;&gt;nodeA -->
<g id="edge1" class="edge">
<title>nodeB:f1&#45;&gt;nodeA:f0</title>
<path fill="none" stroke="lightgrey" stroke-dasharray="5,2" d="M95,-62C114.86,-62 121.47,-54.88 137.19,-52.66"/>
<polygon fill="lightgrey" stroke="lightgrey" points="147,-52 137.32,-57.16 142.01,-52.33 137.02,-52.67 137.02,-52.67 137.02,-52.67 142.01,-52.33 136.72,-48.18 147,-52 147,-52"/>
</g>
<!-- nodeB&#45;&gt;nodeA -->
<g id="edge2" class="edge">
<title>nodeB:f2&#45;&gt;nodeA:f0</title>
<path fill="none" stroke="white" d="M95,-41C114.93,-41 121.43,-48.83 137.16,-51.28"/>
<polygon fill="white" stroke="white" points="147,-52 136.7,-55.76 142.01,-51.63 137.03,-51.27 137.03,-51.27 137.03,-51.27 142.01,-51.63 137.36,-46.78 147,-52 147,-52"/>
</g>
</g>
</svg>
