<?xml version="1.0" encoding="UTF-8" standalone="no"?>
<!DOCTYPE svg PUBLIC "-//W3C//DTD SVG 1.1//EN"
 "http://www.w3.org/Graphics/SVG/1.1/DTD/svg11.dtd">
<!-- Generated by graphviz version 7.1.0 (0)
 -->
<!-- Pages: 1 -->
<svg width="484pt" height="207pt"
 viewBox="0.00 0.00 484.00 207.00" xmlns="http://www.w3.org/2000/svg" xmlns:xlink="http://www.w3.org/1999/xlink">
<g id="graph0" class="graph" transform="scale(1 1) rotate(0) translate(4 203)">
<polygon fill="slategrey" stroke="none" points="-4,4 -4,-203 480,-203 480,4 -4,4"/>
<g id="clust1" class="cluster">
<title>cluster_0</title>
<polygon fill="slateblue" stroke="white" stroke-dasharray="5,2" points="169,-8 169,-191 468,-191 468,-8 169,-8"/>
<text text-anchor="middle" x="318.5" y="-175.8" font-family="Times,serif" font-size="14.00" fill="white">HEAP</text>
</g>
<g id="clust2" class="cluster">
<title>cluster_1</title>
<polygon fill="slateblue" stroke="white" stroke-dasharray="5,2" points="8,-22 8,-179 149,-179 149,-22 8,-22"/>
<text text-anchor="middle" x="78.5" y="-163.8" font-family="Times,serif" font-size="14.00" fill="white">STACK</text>
</g>
<!-- nodeA -->
<g id="node1" class="node">
<title>nodeA</title>
<polygon fill="steelblue" stroke="none" points="236,-131.5 236,-152.5 401,-152.5 401,-131.5 236,-131.5"/>
<polygon fill="none" stroke="white" points="236.5,-131 236.5,-152 266.5,-152 266.5,-131 236.5,-131"/>
<text text-anchor="start" x="239.5" y="-137.8" font-family="Times,serif" font-size="14.00" fill="white"> &#160;F </text>
<polygon fill="none" stroke="white" points="266.5,-131 266.5,-152 294.5,-152 294.5,-131 266.5,-131"/>
<text text-anchor="start" x="269.5" y="-137.8" font-family="Times,serif" font-size="14.00" fill="white"> &#160;e </text>
<polygon fill="none" stroke="white" points="294.5,-131 294.5,-152 321.5,-152 321.5,-131 294.5,-131"/>
<text text-anchor="start" x="297.5" y="-137.8" font-family="Times,serif" font-size="14.00" fill="white"> &#160;r </text>
<polygon fill="none" stroke="white" points="321.5,-131 321.5,-152 348.5,-152 348.5,-131 321.5,-131"/>
<text text-anchor="start" x="324.5" y="-137.8" font-family="Times,serif" font-size="14.00" fill="white"> &#160;r </text>
<polygon fill="none" stroke="white" points="348.5,-131 348.5,-152 373.5,-152 373.5,-131 348.5,-131"/>
<text text-anchor="start" x="351.5" y="-137.8" font-family="Times,serif" font-size="14.00" fill="white"> &#160;i </text>
<polygon fill="none" stroke="white" points="373.5,-131 373.5,-152 401.5,-152 401.5,-131 373.5,-131"/>
<text text-anchor="start" x="376.5" y="-137.8" font-family="Times,serif" font-size="14.00" fill="white"> &#160;s </text>
</g>
<!-- nodeE -->
<!-- nodeD -->
<g id="node3" class="node">
<title>nodeD</title>
<polygon fill="steelblue" stroke="none" points="185,-23.5 185,-44.5 452,-44.5 452,-23.5 185,-23.5"/>
<polygon fill="none" stroke="white" points="185.5,-23 185.5,-44 215.5,-44 215.5,-23 185.5,-23"/>
<text text-anchor="start" x="188.5" y="-29.8" font-family="Times,serif" font-size="14.00" fill="white"> &#160;F </text>
<polygon fill="none" stroke="white" points="215.5,-23 215.5,-44 243.5,-44 243.5,-23 215.5,-23"/>
<text text-anchor="start" x="218.5" y="-29.8" font-family="Times,serif" font-size="14.00" fill="white"> &#160;e </text>
<polygon fill="none" stroke="white" points="243.5,-23 243.5,-44 270.5,-44 270.5,-23 243.5,-23"/>
<text text-anchor="start" x="246.5" y="-29.8" font-family="Times,serif" font-size="14.00" fill="white"> &#160;r </text>
<polygon fill="none" stroke="white" points="270.5,-23 270.5,-44 297.5,-44 297.5,-23 270.5,-23"/>
<text text-anchor="start" x="273.5" y="-29.8" font-family="Times,serif" font-size="14.00" fill="white"> &#160;r </text>
<polygon fill="none" stroke="white" points="297.5,-23 297.5,-44 322.5,-44 322.5,-23 297.5,-23"/>
<text text-anchor="start" x="300.5" y="-29.8" font-family="Times,serif" font-size="14.00" fill="white"> &#160;i </text>
<polygon fill="none" stroke="white" points="322.5,-23 322.5,-44 350.5,-44 350.5,-23 322.5,-23"/>
<text text-anchor="start" x="325.5" y="-29.8" font-family="Times,serif" font-size="14.00" fill="white"> &#160;s </text>
<polygon fill="none" stroke="white" points="350.5,-23 350.5,-44 375.5,-44 375.5,-23 350.5,-23"/>
<text text-anchor="start" x="353.5" y="-29.8" font-family="Times,serif" font-size="14.00" fill="white"> &#160;&#160;&#160;</text>
<polygon fill="none" stroke="white" points="375.5,-23 375.5,-44 400.5,-44 400.5,-23 375.5,-23"/>
<text text-anchor="start" x="378.5" y="-29.8" font-family="Times,serif" font-size="14.00" fill="white"> &#160;J </text>
<polygon fill="none" stroke="white" points="400.5,-23 400.5,-44 427.5,-44 427.5,-23 400.5,-23"/>
<text text-anchor="start" x="403.5" y="-29.8" font-family="Times,serif" font-size="14.00" fill="white"> &#160;r </text>
<polygon fill="none" stroke="white" points="427.5,-23 427.5,-44 452.5,-44 452.5,-23 427.5,-23"/>
<text text-anchor="start" x="430.5" y="-29.8" font-family="Times,serif" font-size="14.00" fill="white"> &#160;. </text>
</g>
<!-- nodeB -->
<g id="node4" class="node">
<title>nodeB</title>
<polygon fill="none" stroke="slateblue" points="42.5,-123 42.5,-144 114.5,-144 114.5,-123 42.5,-123"/>
<text text-anchor="start" x="46.5" y="-130.8" font-family="Times,serif" font-size="14.00" fill="white"> </text>
<text text-anchor="start" x="51.5" y="-130.8" font-family="Times,serif" font-weight="bold" font-size="14.00" fill="white"> &#160;main </text>
<text text-anchor="start" x="105.5" y="-130.8" font-family="Times,serif" font-size="14.00" fill="white"> </text>
<polygon fill="grey" stroke="none" points="42.5,-102 42.5,-123 87.5,-123 87.5,-102 42.5,-102"/>
<polygon fill="none" stroke="white" points="42.5,-102 42.5,-123 87.5,-123 87.5,-102 42.5,-102"/>
<text text-anchor="start" x="45.5" y="-108.8" font-family="Times,serif" font-size="14.00" fill="white"> first </text>
<polygon fill="grey" stroke="none" points="87.5,-102 87.5,-123 114.5,-123 114.5,-102 87.5,-102"/>
<polygon fill="none" stroke="white" points="87.5,-102 87.5,-123 114.5,-123 114.5,-102 87.5,-102"/>
<text text-anchor="start" x="90.5" y="-108.8" font-family="Times,serif" font-size="14.00" fill="white"> ⏺ </text>
</g>
<!-- nodeB&#45;&gt;nodeA -->
<g id="edge1" class="edge">
<title>nodeB:f1&#45;&gt;nodeA:f0</title>
<path fill="none" stroke="lightgrey" stroke-dasharray="5,2" d="M115.5,-112C170.37,-112 180.63,-141 235.5,-141"/>
</g>
<!-- nodeC -->
<g id="node5" class="node">
<title>nodeC</title>
<polygon fill="none" stroke="slateblue" points="24.5,-55 24.5,-76 133.5,-76 133.5,-55 24.5,-55"/>
<text text-anchor="start" x="27.5" y="-62.8" font-family="Times,serif" font-size="14.00" fill="white"> </text>
<text text-anchor="start" x="32.5" y="-62.8" font-family="Times,serif" font-weight="bold" font-size="14.00" fill="white"> &#160;add_suffix </text>
<text text-anchor="start" x="125.5" y="-62.8" font-family="Times,serif" font-size="14.00" fill="white"> </text>
<polygon fill="steelblue" stroke="none" points="24.5,-34 24.5,-55 94.5,-55 94.5,-34 24.5,-34"/>
<polygon fill="none" stroke="white" points="24.5,-34 24.5,-55 94.5,-55 94.5,-34 24.5,-34"/>
<text text-anchor="start" x="35" y="-40.8" font-family="Times,serif" font-size="14.00" fill="white"> name </text>
<polygon fill="steelblue" stroke="none" points="94.5,-34 94.5,-55 133.5,-55 133.5,-34 94.5,-34"/>
<polygon fill="none" stroke="white" points="94.5,-34 94.5,-55 133.5,-55 133.5,-34 94.5,-34"/>
<text text-anchor="start" x="105.5" y="-40.8" font-family="Times,serif" font-size="14.00" fill="white"> ⏺</text>
</g>
<!-- nodeC&#45;&gt;nodeD -->
<g id="edge2" class="edge">
<title>nodeC:f3&#45;&gt;nodeD:f2</title>
<path fill="none" stroke="white" d="M134.5,-44C153.52,-44 159.78,-36.31 174.61,-33.79"/>
<polygon fill="white" stroke="white" points="184.5,-33 174.89,-38.28 179.52,-33.4 174.53,-33.8 174.53,-33.8 174.53,-33.8 179.52,-33.4 174.17,-29.31 184.5,-33 184.5,-33"/>
</g>
</g>
</svg>
