<?xml version="1.0" encoding="UTF-8" standalone="no"?>
<!DOCTYPE svg PUBLIC "-//W3C//DTD SVG 1.1//EN"
 "http://www.w3.org/Graphics/SVG/1.1/DTD/svg11.dtd">
<!-- Generated by graphviz version 7.1.0 (0)
 -->
<!-- Pages: 1 -->
<svg width="484pt" height="184pt"
 viewBox="0.00 0.00 484.00 184.00" xmlns="http://www.w3.org/2000/svg" xmlns:xlink="http://www.w3.org/1999/xlink">
<g id="graph0" class="graph" transform="scale(1 1) rotate(0) translate(4 180)">
<polygon fill="slategrey" stroke="none" points="-4,4 -4,-180 480,-180 480,4 -4,4"/>
<g id="clust1" class="cluster">
<title>cluster_0</title>
<polygon fill="slateblue" stroke="white" stroke-dasharray="5,2" points="169,-8 169,-83 468,-83 468,-8 169,-8"/>
<text text-anchor="middle" x="318.5" y="-67.8" font-family="Times,serif" font-size="14.00" fill="white">HEAP</text>
</g>
<g id="clust2" class="cluster">
<title>cluster_1</title>
<polygon fill="slateblue" stroke="white" stroke-dasharray="5,2" points="8,-11 8,-168 149,-168 149,-11 8,-11"/>
<text text-anchor="middle" x="78.5" y="-152.8" font-family="Times,serif" font-size="14.00" fill="white">STACK</text>
</g>
<!-- nodeD -->
<g id="node1" class="node">
<title>nodeD</title>
<polygon fill="steelblue" stroke="none" points="185,-23.5 185,-44.5 452,-44.5 452,-23.5 185,-23.5"/>
<polygon fill="none" stroke="white" points="185.5,-23 185.5,-44 215.5,-44 215.5,-23 185.5,-23"/>
<text text-anchor="start" x="188.5" y="-29.8" font-family="Times,serif" font-size="14.00" fill="white"> &#160;F </text>
<polygon fill="none" stroke="white" points="215.5,-23 215.5,-44 243.5,-44 243.5,-23 215.5,-23"/>
<text text-anchor="start" x="218.5" y="-29.8" font-family="Times,serif" font-size="14.00" fill="white"> &#160;e </text>
<polygon fill="none" stroke="white" points="243.5,-23 243.5,-44 270.5,-44 270.5,-23 243.5,-23"/>
<text text-anchor="start" x="246.5" y="-29.8" font-family="Times,serif" font-size="14.00" fill="white"> &#160;r </text>
<polygon fill="none" stroke="white" points="270.5,-23 270.5,-44 297.5,-44 297.5,-23 270.5,-23"/>
<text text-anchor="start" x="273.5" y="-29.8" font-family="Times,serif" font-size="14.00" fill="white"> &#160;r </text>
<polygon fill="none" stroke="white" points="297.5,-23 297.5,-44 322.5,-44 322.5,-23 297.5,-23"/>
<text text-anchor="start" x="300.5" y="-29.8" font-family="Times,serif" font-size="14.00" fill="white"> &#160;i </text>
<polygon fill="none" stroke="white" points="322.5,-23 322.5,-44 350.5,-44 350.5,-23 322.5,-23"/>
<text text-anchor="start" x="325.5" y="-29.8" font-family="Times,serif" font-size="14.00" fill="white"> &#160;s </text>
<polygon fill="none" stroke="white" points="350.5,-23 350.5,-44 375.5,-44 375.5,-23 350.5,-23"/>
<text text-anchor="start" x="353.5" y="-29.8" font-family="Times,serif" font-size="14.00" fill="white"> &#160;&#160;&#160;</text>
<polygon fill="none" stroke="white" points="375.5,-23 375.5,-44 400.5,-44 400.5,-23 375.5,-23"/>
<text text-anchor="start" x="378.5" y="-29.8" font-family="Times,serif" font-size="14.00" fill="white"> &#160;J </text>
<polygon fill="none" stroke="white" points="400.5,-23 400.5,-44 427.5,-44 427.5,-23 400.5,-23"/>
<text text-anchor="start" x="403.5" y="-29.8" font-family="Times,serif" font-size="14.00" fill="white"> &#160;r </text>
<polygon fill="none" stroke="white" points="427.5,-23 427.5,-44 452.5,-44 452.5,-23 427.5,-23"/>
<text text-anchor="start" x="430.5" y="-29.8" font-family="Times,serif" font-size="14.00" fill="white"> &#160;. </text>
</g>
<!-- nodeB -->
<g id="node2" class="node">
<title>nodeB</title>
<polygon fill="none" stroke="slateblue" points="43.5,-112 43.5,-133 114.5,-133 114.5,-112 43.5,-112"/>
<text text-anchor="start" x="47" y="-119.8" font-family="Times,serif" font-size="14.00" fill="white"> </text>
<text text-anchor="start" x="52" y="-119.8" font-family="Times,serif" font-weight="bold" font-size="14.00" fill="white"> &#160;main </text>
<text text-anchor="start" x="106" y="-119.8" font-family="Times,serif" font-size="14.00" fill="white"> </text>
<polygon fill="grey" stroke="none" points="43.5,-91 43.5,-112 88.5,-112 88.5,-91 43.5,-91"/>
<polygon fill="none" stroke="white" points="43.5,-91 43.5,-112 88.5,-112 88.5,-91 43.5,-91"/>
<text text-anchor="start" x="46.5" y="-97.8" font-family="Times,serif" font-size="14.00" fill="white"> first </text>
<polygon fill="grey" stroke="none" points="88.5,-91 88.5,-112 114.5,-112 114.5,-91 88.5,-91"/>
<polygon fill="none" stroke="white" points="88.5,-91 88.5,-112 114.5,-112 114.5,-91 88.5,-91"/>
<text text-anchor="start" x="91.5" y="-97.8" font-family="Times,serif" font-size="14.00" fill="white"> ⦻ </text>
</g>
<!-- nodeC -->
<g id="node3" class="node">
<title>nodeC</title>
<polygon fill="none" stroke="slateblue" points="24.5,-44 24.5,-65 133.5,-65 133.5,-44 24.5,-44"/>
<text text-anchor="start" x="27.5" y="-51.8" font-family="Times,serif" font-size="14.00" fill="white"> </text>
<text text-anchor="start" x="32.5" y="-51.8" font-family="Times,serif" font-weight="bold" font-size="14.00" fill="white"> &#160;add_suffix </text>
<text text-anchor="start" x="125.5" y="-51.8" font-family="Times,serif" font-size="14.00" fill="white"> </text>
<polygon fill="steelblue" stroke="none" points="24.5,-23 24.5,-44 94.5,-44 94.5,-23 24.5,-23"/>
<polygon fill="none" stroke="white" points="24.5,-23 24.5,-44 94.5,-44 94.5,-23 24.5,-23"/>
<text text-anchor="start" x="35" y="-29.8" font-family="Times,serif" font-size="14.00" fill="white"> name </text>
<polygon fill="steelblue" stroke="none" points="94.5,-23 94.5,-44 133.5,-44 133.5,-23 94.5,-23"/>
<polygon fill="none" stroke="white" points="94.5,-23 94.5,-44 133.5,-44 133.5,-23 94.5,-23"/>
<text text-anchor="start" x="105.5" y="-29.8" font-family="Times,serif" font-size="14.00" fill="white">⏺ </text>
</g>
<!-- nodeC&#45;&gt;nodeD -->
<g id="edge1" class="edge">
<title>nodeC:f3&#45;&gt;nodeD:f2</title>
<path fill="none" stroke="white" d="M134.5,-33C153.08,-33 160.01,-33 174.76,-33"/>
<polygon fill="white" stroke="white" points="184.5,-33 174.5,-37.5 179.5,-33 174.5,-33 174.5,-33 174.5,-33 179.5,-33 174.5,-28.5 184.5,-33 184.5,-33"/>
</g>
</g>
</svg>
