<?xml version="1.0" encoding="UTF-8" standalone="no"?>
<!DOCTYPE svg PUBLIC "-//W3C//DTD SVG 1.1//EN"
 "http://www.w3.org/Graphics/SVG/1.1/DTD/svg11.dtd">
<!-- Generated by graphviz version 7.1.0 (0)
 -->
<!-- Pages: 1 -->
<svg width="511pt" height="58pt"
 viewBox="0.00 0.00 511.00 58.00" xmlns="http://www.w3.org/2000/svg" xmlns:xlink="http://www.w3.org/1999/xlink">
<g id="graph0" class="graph" transform="scale(1 1) rotate(0) translate(4 54)">
<polygon fill="black" stroke="none" points="-4,4 -4,-54 507,-54 507,4 -4,4"/>
<!-- nodeA -->
<g id="node1" class="node">
<title>nodeA</title>
<polygon fill="none" stroke="black" points="8.5,-25 8.5,-46 39.5,-46 39.5,-25 8.5,-25"/>
<text text-anchor="start" x="14.5" y="-31.8" font-family="Arial" font-size="14.00" fill="white"> &#160;i &#160;</text>
<polygon fill="none" stroke="black" points="39.5,-25 39.5,-46 68.5,-46 68.5,-25 39.5,-25"/>
<text text-anchor="start" x="46" y="-31.8" font-family="Arial" font-size="14.00" fill="white"> &#160;&#160;&#160;</text>
<polygon fill="none" stroke="black" points="68.5,-25 68.5,-46 99.5,-46 99.5,-25 68.5,-25"/>
<text text-anchor="start" x="76" y="-31.8" font-family="Arial" font-size="14.00" fill="white"> &#160;&#160;&#160;</text>
<polygon fill="none" stroke="black" points="99.5,-25 99.5,-46 130.5,-46 130.5,-25 99.5,-25"/>
<text text-anchor="start" x="107" y="-31.8" font-family="Arial" font-size="14.00" fill="white"> &#160;&#160;&#160;</text>
<polygon fill="none" stroke="black" points="130.5,-25 130.5,-46 161.5,-46 161.5,-25 130.5,-25"/>
<text text-anchor="start" x="138" y="-31.8" font-family="Arial" font-size="14.00" fill="white"> &#160;&#160;&#160;</text>
<polygon fill="none" stroke="black" points="161.5,-25 161.5,-46 192.5,-46 192.5,-25 161.5,-25"/>
<text text-anchor="start" x="169" y="-31.8" font-family="Arial" font-size="14.00" fill="white"> &#160;&#160;&#160;</text>
<polygon fill="none" stroke="black" points="192.5,-25 192.5,-46 225.5,-46 225.5,-25 192.5,-25"/>
<text text-anchor="start" x="201" y="-31.8" font-family="Arial" font-size="14.00" fill="white"> &#160;&#160;&#160;</text>
<polygon fill="none" stroke="black" points="225.5,-25 225.5,-46 256.5,-46 256.5,-25 225.5,-25"/>
<text text-anchor="start" x="233" y="-31.8" font-family="Arial" font-size="14.00" fill="white"> &#160;&#160;&#160;</text>
<polygon fill="none" stroke="black" points="256.5,-25 256.5,-46 289.5,-46 289.5,-25 256.5,-25"/>
<text text-anchor="start" x="265" y="-31.8" font-family="Arial" font-size="14.00" fill="white"> &#160;&#160;&#160;</text>
<polygon fill="none" stroke="black" points="289.5,-25 289.5,-46 320.5,-46 320.5,-25 289.5,-25"/>
<text text-anchor="start" x="297" y="-31.8" font-family="Arial" font-size="14.00" fill="white"> &#160;&#160;&#160;</text>
<polygon fill="none" stroke="black" points="320.5,-25 320.5,-46 353.5,-46 353.5,-25 320.5,-25"/>
<text text-anchor="start" x="329" y="-31.8" font-family="Arial" font-size="14.00" fill="white"> &#160;&#160;&#160;</text>
<polygon fill="none" stroke="black" points="353.5,-25 353.5,-46 386.5,-46 386.5,-25 353.5,-25"/>
<text text-anchor="start" x="362" y="-31.8" font-family="Arial" font-size="14.00" fill="white"> &#160;&#160;&#160;</text>
<polygon fill="none" stroke="black" points="386.5,-25 386.5,-46 411.5,-46 411.5,-25 386.5,-25"/>
<text text-anchor="start" x="389.5" y="-31.8" font-family="Arial" font-size="14.00" fill="white"> &#160;f &#160;</text>
<polygon fill="none" stroke="black" points="411.5,-25 411.5,-46 436.5,-46 436.5,-25 411.5,-25"/>
<text text-anchor="start" x="416" y="-31.8" font-family="Arial" font-size="14.00" fill="white"> &#160;&#160;&#160;</text>
<polygon fill="none" stroke="black" points="436.5,-25 436.5,-46 461.5,-46 461.5,-25 436.5,-25"/>
<text text-anchor="start" x="441" y="-31.8" font-family="Arial" font-size="14.00" fill="white"> &#160;&#160;&#160;</text>
<polygon fill="none" stroke="black" points="461.5,-25 461.5,-46 495.5,-46 495.5,-25 461.5,-25"/>
<text text-anchor="start" x="464.5" y="-31.8" font-family="Arial" font-size="14.00" fill="white"> n&#45;1 </text>
<polygon fill="red" stroke="none" points="8.5,-4 8.5,-25 39.5,-25 39.5,-4 8.5,-4"/>
<polygon fill="none" stroke="white" points="8.5,-4 8.5,-25 39.5,-25 39.5,-4 8.5,-4"/>
<text text-anchor="start" x="11.5" y="-10.8" font-family="Arial" font-size="14.00" fill="white"> &#160;E &#160;</text>
<polygon fill="red" stroke="none" points="39.5,-4 39.5,-25 68.5,-25 68.5,-4 39.5,-4"/>
<polygon fill="none" stroke="white" points="39.5,-4 39.5,-25 68.5,-25 68.5,-4 39.5,-4"/>
<text text-anchor="start" x="42.5" y="-10.8" font-family="Arial" font-size="14.00" fill="white"> &#160;L &#160;</text>
<polygon fill="red" stroke="none" points="68.5,-4 68.5,-25 99.5,-25 99.5,-4 68.5,-4"/>
<polygon fill="none" stroke="white" points="68.5,-4 68.5,-25 99.5,-25 99.5,-4 68.5,-4"/>
<text text-anchor="start" x="71.5" y="-10.8" font-family="Arial" font-size="14.00" fill="white"> &#160;P &#160;</text>
<polygon fill="red" stroke="none" points="99.5,-4 99.5,-25 130.5,-25 130.5,-4 99.5,-4"/>
<polygon fill="none" stroke="white" points="99.5,-4 99.5,-25 130.5,-25 130.5,-4 99.5,-4"/>
<text text-anchor="start" x="102.5" y="-10.8" font-family="Arial" font-size="14.00" fill="white"> &#160;S &#160;</text>
<polygon fill="red" stroke="none" points="130.5,-4 130.5,-25 161.5,-25 161.5,-4 130.5,-4"/>
<polygon fill="none" stroke="white" points="130.5,-4 130.5,-25 161.5,-25 161.5,-4 130.5,-4"/>
<text text-anchor="start" x="133.5" y="-10.8" font-family="Arial" font-size="14.00" fill="white"> &#160;Y &#160;</text>
<polygon fill="red" stroke="none" points="161.5,-4 161.5,-25 192.5,-25 192.5,-4 161.5,-4"/>
<polygon fill="none" stroke="white" points="161.5,-4 161.5,-25 192.5,-25 192.5,-4 161.5,-4"/>
<text text-anchor="start" x="164.5" y="-10.8" font-family="Arial" font-size="14.00" fill="white"> &#160;K &#160;</text>
<polygon fill="red" stroke="none" points="192.5,-4 192.5,-25 225.5,-25 225.5,-4 192.5,-4"/>
<polygon fill="none" stroke="white" points="192.5,-4 192.5,-25 225.5,-25 225.5,-4 192.5,-4"/>
<text text-anchor="start" x="195.5" y="-10.8" font-family="Arial" font-size="14.00" fill="white"> &#160;O &#160;</text>
<polygon fill="red" stroke="none" points="225.5,-4 225.5,-25 256.5,-25 256.5,-4 225.5,-4"/>
<polygon fill="none" stroke="white" points="225.5,-4 225.5,-25 256.5,-25 256.5,-4 225.5,-4"/>
<text text-anchor="start" x="228.5" y="-10.8" font-family="Arial" font-size="14.00" fill="white"> &#160;N &#160;</text>
<polygon fill="red" stroke="none" points="256.5,-4 256.5,-25 289.5,-25 289.5,-4 256.5,-4"/>
<polygon fill="none" stroke="white" points="256.5,-4 256.5,-25 289.5,-25 289.5,-4 256.5,-4"/>
<text text-anchor="start" x="259.5" y="-10.8" font-family="Arial" font-size="14.00" fill="white"> &#160;G &#160;</text>
<polygon fill="red" stroke="none" points="289.5,-4 289.5,-25 320.5,-25 320.5,-4 289.5,-4"/>
<polygon fill="none" stroke="white" points="289.5,-4 289.5,-25 320.5,-25 320.5,-4 289.5,-4"/>
<text text-anchor="start" x="292.5" y="-10.8" font-family="Arial" font-size="14.00" fill="white"> &#160;R &#160;</text>
<polygon fill="red" stroke="none" points="320.5,-4 320.5,-25 353.5,-25 353.5,-4 320.5,-4"/>
<polygon fill="none" stroke="white" points="320.5,-4 320.5,-25 353.5,-25 353.5,-4 320.5,-4"/>
<text text-anchor="start" x="323.5" y="-10.8" font-family="Arial" font-size="14.00" fill="white"> &#160;O &#160;</text>
<polygon fill="red" stroke="none" points="353.5,-4 353.5,-25 386.5,-25 386.5,-4 353.5,-4"/>
<polygon fill="none" stroke="white" points="353.5,-4 353.5,-25 386.5,-25 386.5,-4 353.5,-4"/>
<text text-anchor="start" x="356.5" y="-10.8" font-family="Arial" font-size="14.00" fill="white"> &#160;O &#160;</text>
<polygon fill="grey" stroke="none" points="386.5,-4 386.5,-25 411.5,-25 411.5,-4 386.5,-4"/>
<polygon fill="none" stroke="white" points="386.5,-4 386.5,-25 411.5,-25 411.5,-4 386.5,-4"/>
<text text-anchor="start" x="389.5" y="-10.8" font-family="Arial" font-size="14.00" fill="white"> &#160;&#160;&#160;&#160;</text>
<polygon fill="grey" stroke="none" points="411.5,-4 411.5,-25 436.5,-25 436.5,-4 411.5,-4"/>
<polygon fill="none" stroke="white" points="411.5,-4 411.5,-25 436.5,-25 436.5,-4 411.5,-4"/>
<text text-anchor="start" x="414.5" y="-10.8" font-family="Arial" font-size="14.00" fill="white"> &#160;&#160;&#160;&#160;</text>
<polygon fill="grey" stroke="none" points="436.5,-4 436.5,-25 461.5,-25 461.5,-4 436.5,-4"/>
<polygon fill="none" stroke="white" points="436.5,-4 436.5,-25 461.5,-25 461.5,-4 436.5,-4"/>
<text text-anchor="start" x="439.5" y="-10.8" font-family="Arial" font-size="14.00" fill="white"> &#160;&#160;&#160;&#160;</text>
<polygon fill="grey" stroke="none" points="461.5,-4 461.5,-25 495.5,-25 495.5,-4 461.5,-4"/>
<polygon fill="none" stroke="white" points="461.5,-4 461.5,-25 495.5,-25 495.5,-4 461.5,-4"/>
<text text-anchor="start" x="470.5" y="-10.8" font-family="Arial" font-size="14.00" fill="white"> &#160;&#160;&#160;</text>
</g>
</g>
</svg>
