<?xml version="1.0" encoding="UTF-8" standalone="no"?>
<!DOCTYPE svg PUBLIC "-//W3C//DTD SVG 1.1//EN"
 "http://www.w3.org/Graphics/SVG/1.1/DTD/svg11.dtd">
<!-- Generated by graphviz version 7.1.0 (0)
 -->
<!-- Pages: 1 -->
<svg width="505pt" height="58pt"
 viewBox="0.00 0.00 505.00 58.00" xmlns="http://www.w3.org/2000/svg" xmlns:xlink="http://www.w3.org/1999/xlink">
<g id="graph0" class="graph" transform="scale(1 1) rotate(0) translate(4 54)">
<polygon fill="black" stroke="none" points="-4,4 -4,-54 501,-54 501,4 -4,4"/>
<!-- nodeA -->
<g id="node1" class="node">
<title>nodeA</title>
<polygon fill="none" stroke="black" points="8.5,-25 8.5,-46 37.5,-46 37.5,-25 8.5,-25"/>
<text text-anchor="start" x="13.5" y="-31.8" font-family="Arial" font-size="14.00" fill="white"> &#160;i &#160;</text>
<polygon fill="none" stroke="black" points="37.5,-25 37.5,-46 68.5,-46 68.5,-25 37.5,-25"/>
<text text-anchor="start" x="45" y="-31.8" font-family="Arial" font-size="14.00" fill="white"> &#160;&#160;&#160;</text>
<polygon fill="none" stroke="black" points="68.5,-25 68.5,-46 99.5,-46 99.5,-25 68.5,-25"/>
<text text-anchor="start" x="76" y="-31.8" font-family="Arial" font-size="14.00" fill="white"> &#160;&#160;&#160;</text>
<polygon fill="none" stroke="black" points="99.5,-25 99.5,-46 130.5,-46 130.5,-25 99.5,-25"/>
<text text-anchor="start" x="107" y="-31.8" font-family="Arial" font-size="14.00" fill="white"> &#160;&#160;&#160;</text>
<polygon fill="none" stroke="black" points="130.5,-25 130.5,-46 161.5,-46 161.5,-25 130.5,-25"/>
<text text-anchor="start" x="138" y="-31.8" font-family="Arial" font-size="14.00" fill="white"> &#160;&#160;&#160;</text>
<polygon fill="none" stroke="black" points="161.5,-25 161.5,-46 194.5,-46 194.5,-25 161.5,-25"/>
<text text-anchor="start" x="170" y="-31.8" font-family="Arial" font-size="14.00" fill="white"> &#160;&#160;&#160;</text>
<polygon fill="none" stroke="black" points="194.5,-25 194.5,-46 225.5,-46 225.5,-25 194.5,-25"/>
<text text-anchor="start" x="202" y="-31.8" font-family="Arial" font-size="14.00" fill="white"> &#160;&#160;&#160;</text>
<polygon fill="none" stroke="black" points="225.5,-25 225.5,-46 258.5,-46 258.5,-25 225.5,-25"/>
<text text-anchor="start" x="234" y="-31.8" font-family="Arial" font-size="14.00" fill="white"> &#160;&#160;&#160;</text>
<polygon fill="none" stroke="black" points="258.5,-25 258.5,-46 289.5,-46 289.5,-25 258.5,-25"/>
<text text-anchor="start" x="266" y="-31.8" font-family="Arial" font-size="14.00" fill="white"> &#160;&#160;&#160;</text>
<polygon fill="none" stroke="black" points="289.5,-25 289.5,-46 322.5,-46 322.5,-25 289.5,-25"/>
<text text-anchor="start" x="298" y="-31.8" font-family="Arial" font-size="14.00" fill="white"> &#160;&#160;&#160;</text>
<polygon fill="none" stroke="black" points="322.5,-25 322.5,-46 355.5,-46 355.5,-25 322.5,-25"/>
<text text-anchor="start" x="331" y="-31.8" font-family="Arial" font-size="14.00" fill="white"> &#160;&#160;&#160;</text>
<polygon fill="none" stroke="black" points="355.5,-25 355.5,-46 380.5,-46 380.5,-25 355.5,-25"/>
<text text-anchor="start" x="358.5" y="-31.8" font-family="Arial" font-size="14.00" fill="white"> &#160;f &#160;</text>
<polygon fill="none" stroke="black" points="380.5,-25 380.5,-46 405.5,-46 405.5,-25 380.5,-25"/>
<text text-anchor="start" x="385" y="-31.8" font-family="Arial" font-size="14.00" fill="white"> &#160;&#160;&#160;</text>
<polygon fill="none" stroke="black" points="405.5,-25 405.5,-46 430.5,-46 430.5,-25 405.5,-25"/>
<text text-anchor="start" x="410" y="-31.8" font-family="Arial" font-size="14.00" fill="white"> &#160;&#160;&#160;</text>
<polygon fill="none" stroke="black" points="430.5,-25 430.5,-46 455.5,-46 455.5,-25 430.5,-25"/>
<text text-anchor="start" x="435" y="-31.8" font-family="Arial" font-size="14.00" fill="white"> &#160;&#160;&#160;</text>
<polygon fill="none" stroke="black" points="455.5,-25 455.5,-46 489.5,-46 489.5,-25 455.5,-25"/>
<text text-anchor="start" x="458.5" y="-31.8" font-family="Arial" font-size="14.00" fill="white"> n&#45;1 </text>
<polygon fill="red" stroke="none" points="8.5,-4 8.5,-25 37.5,-25 37.5,-4 8.5,-4"/>
<polygon fill="none" stroke="white" points="8.5,-4 8.5,-25 37.5,-25 37.5,-4 8.5,-4"/>
<text text-anchor="start" x="11.5" y="-10.8" font-family="Arial" font-size="14.00" fill="white"> &#160;L &#160;</text>
<polygon fill="red" stroke="none" points="37.5,-4 37.5,-25 68.5,-25 68.5,-4 37.5,-4"/>
<polygon fill="none" stroke="white" points="37.5,-4 37.5,-25 68.5,-25 68.5,-4 37.5,-4"/>
<text text-anchor="start" x="40.5" y="-10.8" font-family="Arial" font-size="14.00" fill="white"> &#160;P &#160;</text>
<polygon fill="red" stroke="none" points="68.5,-4 68.5,-25 99.5,-25 99.5,-4 68.5,-4"/>
<polygon fill="none" stroke="white" points="68.5,-4 68.5,-25 99.5,-25 99.5,-4 68.5,-4"/>
<text text-anchor="start" x="71.5" y="-10.8" font-family="Arial" font-size="14.00" fill="white"> &#160;S &#160;</text>
<polygon fill="red" stroke="none" points="99.5,-4 99.5,-25 130.5,-25 130.5,-4 99.5,-4"/>
<polygon fill="none" stroke="white" points="99.5,-4 99.5,-25 130.5,-25 130.5,-4 99.5,-4"/>
<text text-anchor="start" x="102.5" y="-10.8" font-family="Arial" font-size="14.00" fill="white"> &#160;Y &#160;</text>
<polygon fill="red" stroke="none" points="130.5,-4 130.5,-25 161.5,-25 161.5,-4 130.5,-4"/>
<polygon fill="none" stroke="white" points="130.5,-4 130.5,-25 161.5,-25 161.5,-4 130.5,-4"/>
<text text-anchor="start" x="133.5" y="-10.8" font-family="Arial" font-size="14.00" fill="white"> &#160;K &#160;</text>
<polygon fill="red" stroke="none" points="161.5,-4 161.5,-25 194.5,-25 194.5,-4 161.5,-4"/>
<polygon fill="none" stroke="white" points="161.5,-4 161.5,-25 194.5,-25 194.5,-4 161.5,-4"/>
<text text-anchor="start" x="164.5" y="-10.8" font-family="Arial" font-size="14.00" fill="white"> &#160;O &#160;</text>
<polygon fill="red" stroke="none" points="194.5,-4 194.5,-25 225.5,-25 225.5,-4 194.5,-4"/>
<polygon fill="none" stroke="white" points="194.5,-4 194.5,-25 225.5,-25 225.5,-4 194.5,-4"/>
<text text-anchor="start" x="197.5" y="-10.8" font-family="Arial" font-size="14.00" fill="white"> &#160;N &#160;</text>
<polygon fill="red" stroke="none" points="225.5,-4 225.5,-25 258.5,-25 258.5,-4 225.5,-4"/>
<polygon fill="none" stroke="white" points="225.5,-4 225.5,-25 258.5,-25 258.5,-4 225.5,-4"/>
<text text-anchor="start" x="228.5" y="-10.8" font-family="Arial" font-size="14.00" fill="white"> &#160;G &#160;</text>
<polygon fill="red" stroke="none" points="258.5,-4 258.5,-25 289.5,-25 289.5,-4 258.5,-4"/>
<polygon fill="none" stroke="white" points="258.5,-4 258.5,-25 289.5,-25 289.5,-4 258.5,-4"/>
<text text-anchor="start" x="261.5" y="-10.8" font-family="Arial" font-size="14.00" fill="white"> &#160;R &#160;</text>
<polygon fill="red" stroke="none" points="289.5,-4 289.5,-25 322.5,-25 322.5,-4 289.5,-4"/>
<polygon fill="none" stroke="white" points="289.5,-4 289.5,-25 322.5,-25 322.5,-4 289.5,-4"/>
<text text-anchor="start" x="292.5" y="-10.8" font-family="Arial" font-size="14.00" fill="white"> &#160;O &#160;</text>
<polygon fill="red" stroke="none" points="322.5,-4 322.5,-25 355.5,-25 355.5,-4 322.5,-4"/>
<polygon fill="none" stroke="white" points="322.5,-4 322.5,-25 355.5,-25 355.5,-4 322.5,-4"/>
<text text-anchor="start" x="325.5" y="-10.8" font-family="Arial" font-size="14.00" fill="white"> &#160;O &#160;</text>
<polygon fill="grey" stroke="none" points="355.5,-4 355.5,-25 380.5,-25 380.5,-4 355.5,-4"/>
<polygon fill="none" stroke="white" points="355.5,-4 355.5,-25 380.5,-25 380.5,-4 355.5,-4"/>
<text text-anchor="start" x="358.5" y="-10.8" font-family="Arial" font-size="14.00" fill="white"> &#160;&#160;&#160;&#160;</text>
<polygon fill="grey" stroke="none" points="380.5,-4 380.5,-25 405.5,-25 405.5,-4 380.5,-4"/>
<polygon fill="none" stroke="white" points="380.5,-4 380.5,-25 405.5,-25 405.5,-4 380.5,-4"/>
<text text-anchor="start" x="383.5" y="-10.8" font-family="Arial" font-size="14.00" fill="white"> &#160;&#160;&#160;&#160;</text>
<polygon fill="grey" stroke="none" points="405.5,-4 405.5,-25 430.5,-25 430.5,-4 405.5,-4"/>
<polygon fill="none" stroke="white" points="405.5,-4 405.5,-25 430.5,-25 430.5,-4 405.5,-4"/>
<text text-anchor="start" x="408.5" y="-10.8" font-family="Arial" font-size="14.00" fill="white"> &#160;&#160;&#160;&#160;</text>
<polygon fill="grey" stroke="none" points="430.5,-4 430.5,-25 455.5,-25 455.5,-4 430.5,-4"/>
<polygon fill="none" stroke="white" points="430.5,-4 430.5,-25 455.5,-25 455.5,-4 430.5,-4"/>
<text text-anchor="start" x="433.5" y="-10.8" font-family="Arial" font-size="14.00" fill="white"> &#160;&#160;&#160;&#160;</text>
<polygon fill="grey" stroke="none" points="455.5,-4 455.5,-25 489.5,-25 489.5,-4 455.5,-4"/>
<polygon fill="none" stroke="white" points="455.5,-4 455.5,-25 489.5,-25 489.5,-4 455.5,-4"/>
<text text-anchor="start" x="464.5" y="-10.8" font-family="Arial" font-size="14.00" fill="white"> &#160;&#160;&#160;</text>
</g>
</g>
</svg>
